<svg xmlns="http://www.w3.org/2000/svg" 
     xmlns:xlink="http://www.w3.org/1999/xlink"
     width="300mm" height="300mm" 
     viewBox="0 0 300 300">
  
  <defs>
    <style>
      @import url('https://fonts.googleapis.com/css2?family=Caveat:wght@400&amp;display=swap');
    </style>
    </defs>

  <!-- Carré rouge 30x30cm -->
  <rect x="0" y="0" width="300" height="300" fill="none" stroke="red" stroke-width="0.5"/>

  <!-- ============================================================ -->
  <!-- VERTICAL STRUCTURE (top section) -->
  <!-- ============================================================ -->
  <g fill="none" stroke="#222" stroke-width="0.5" stroke-linecap="round" stroke-linejoin="round">

    <!-- Upper vertical lines (24 lines, x=0.5 to x=299.5, spaced 13mm, y=8 to y=98) -->
    <line x1="0.5" y1="8" x2="0.5" y2="98"/>
    <line x1="13.5" y1="8" x2="13.5" y2="98"/>
    <line x1="26.5" y1="8" x2="26.5" y2="98"/>
    <line x1="39.5" y1="8" x2="39.5" y2="98"/>
    <line x1="52.5" y1="8" x2="52.5" y2="98"/>
    <line x1="65.5" y1="8" x2="65.5" y2="98"/>
    <line x1="78.5" y1="8" x2="78.5" y2="98"/>
    <line x1="91.5" y1="8" x2="91.5" y2="98"/>
    <line x1="104.5" y1="8" x2="104.5" y2="98"/>
    <line x1="117.5" y1="8" x2="117.5" y2="98"/>
    <line x1="130.5" y1="8" x2="130.5" y2="98"/>
    <line x1="143.5" y1="8" x2="143.5" y2="98"/>
    <line x1="156.5" y1="8" x2="156.5" y2="98"/>
    <line x1="169.5" y1="8" x2="169.5" y2="98"/>
    <line x1="182.5" y1="8" x2="182.5" y2="98"/>
    <line x1="195.5" y1="8" x2="195.5" y2="98"/>
    <line x1="208.5" y1="8" x2="208.5" y2="98"/>
    <line x1="221.5" y1="8" x2="221.5" y2="98"/>
    <line x1="234.5" y1="8" x2="234.5" y2="98"/>
    <line x1="247.5" y1="8" x2="247.5" y2="98"/>
    <line x1="260.5" y1="8" x2="260.5" y2="98"/>
    <line x1="273.5" y1="8" x2="273.5" y2="98"/>
    <line x1="286.5" y1="8" x2="286.5" y2="98"/>
    <line x1="299.5" y1="8" x2="299.5" y2="98"/>

    <!-- Top arcs (curving upward) -->
    <path d="M0.5,8 A6.5,6.5 0 0,1 13.5,8"/>
    <path d="M13.5,8 A6.5,6.5 0 0,1 26.5,8"/>
    <path d="M26.5,8 A6.5,6.5 0 0,1 39.5,8"/>
    <path d="M39.5,8 A6.5,6.5 0 0,1 52.5,8"/>
    <path d="M52.5,8 A6.5,6.5 0 0,1 65.5,8"/>
    <path d="M65.5,8 A6.5,6.5 0 0,1 78.5,8"/>
    <path d="M78.5,8 A6.5,6.5 0 0,1 91.5,8"/>
    <path d="M91.5,8 A6.5,6.5 0 0,1 104.5,8"/>
    <path d="M104.5,8 A6.5,6.5 0 0,1 117.5,8"/>
    <path d="M117.5,8 A6.5,6.5 0 0,1 130.5,8"/>
    <path d="M130.5,8 A6.5,6.5 0 0,1 143.5,8"/>
    <path d="M143.5,8 A6.5,6.5 0 0,1 156.5,8"/>
    <path d="M156.5,8 A6.5,6.5 0 0,1 169.5,8"/>
    <path d="M169.5,8 A6.5,6.5 0 0,1 182.5,8"/>
    <path d="M182.5,8 A6.5,6.5 0 0,1 195.5,8"/>
    <path d="M195.5,8 A6.5,6.5 0 0,1 208.5,8"/>
    <path d="M208.5,8 A6.5,6.5 0 0,1 221.5,8"/>
    <path d="M221.5,8 A6.5,6.5 0 0,1 234.5,8"/>
    <path d="M234.5,8 A6.5,6.5 0 0,1 247.5,8"/>
    <path d="M247.5,8 A6.5,6.5 0 0,1 260.5,8"/>
    <path d="M260.5,8 A6.5,6.5 0 0,1 273.5,8"/>
    <path d="M273.5,8 A6.5,6.5 0 0,1 286.5,8"/>
    <path d="M286.5,8 A6.5,6.5 0 0,1 299.5,8"/>

    <!-- Bottom V-peaks (tips 20mm below y=98 → y=118) -->
    <path d="M0.5,98 L7,118 L13.5,98"/>
    <path d="M13.5,98 L20,118 L26.5,98"/>
    <path d="M26.5,98 L33,118 L39.5,98"/>
    <path d="M39.5,98 L46,118 L52.5,98"/>
    <path d="M52.5,98 L59,118 L65.5,98"/>
    <path d="M65.5,98 L72,118 L78.5,98"/>
    <path d="M78.5,98 L85,118 L91.5,98"/>
    <path d="M91.5,98 L98,118 L104.5,98"/>
    <path d="M104.5,98 L111,118 L117.5,98"/>
    <path d="M117.5,98 L124,118 L130.5,98"/>
    <path d="M130.5,98 L137,118 L143.5,98"/>
    <path d="M143.5,98 L150,118 L156.5,98"/>
    <path d="M156.5,98 L163,118 L169.5,98"/>
    <path d="M169.5,98 L176,118 L182.5,98"/>
    <path d="M182.5,98 L189,118 L195.5,98"/>
    <path d="M195.5,98 L202,118 L208.5,98"/>
    <path d="M208.5,98 L215,118 L221.5,98"/>
    <path d="M221.5,98 L228,118 L234.5,98"/>
    <path d="M234.5,98 L241,118 L247.5,98"/>
    <path d="M247.5,98 L254,118 L260.5,98"/>
    <path d="M260.5,98 L267,118 L273.5,98"/>
    <path d="M273.5,98 L280,118 L286.5,98"/>
    <path d="M286.5,98 L293,118 L299.5,98"/>

    <!-- Lower vertical lines from peak tips (23 lines), y=118 to y=208 -->
    <line x1="7" y1="118" x2="7" y2="208"/>
    <line x1="20" y1="118" x2="20" y2="208"/>
    <line x1="33" y1="118" x2="33" y2="208"/>
    <line x1="46" y1="118" x2="46" y2="208"/>
    <line x1="59" y1="118" x2="59" y2="208"/>
    <line x1="72" y1="118" x2="72" y2="208"/>
    <line x1="85" y1="118" x2="85" y2="208"/>
    <line x1="98" y1="118" x2="98" y2="208"/>
    <line x1="111" y1="118" x2="111" y2="208"/>
    <line x1="124" y1="118" x2="124" y2="208"/>
    <line x1="137" y1="118" x2="137" y2="208"/>
    <line x1="150" y1="118" x2="150" y2="208"/>
    <line x1="163" y1="118" x2="163" y2="208"/>
    <line x1="176" y1="118" x2="176" y2="208"/>
    <line x1="189" y1="118" x2="189" y2="208"/>
    <line x1="202" y1="118" x2="202" y2="208"/>
    <line x1="215" y1="118" x2="215" y2="208"/>
    <line x1="228" y1="118" x2="228" y2="208"/>
    <line x1="241" y1="118" x2="241" y2="208"/>
    <line x1="254" y1="118" x2="254" y2="208"/>
    <line x1="267" y1="118" x2="267" y2="208"/>
    <line x1="280" y1="118" x2="280" y2="208"/>
    <line x1="293" y1="118" x2="293" y2="208"/>

    <!-- Bottom arcs (curving downward) -->
    <path d="M7,208 A6.5,6.5 0 0,0 20,208"/>
    <path d="M20,208 A6.5,6.5 0 0,0 33,208"/>
    <path d="M33,208 A6.5,6.5 0 0,0 46,208"/>
    <path d="M46,208 A6.5,6.5 0 0,0 59,208"/>
    <path d="M59,208 A6.5,6.5 0 0,0 72,208"/>
    <path d="M72,208 A6.5,6.5 0 0,0 85,208"/>
    <path d="M85,208 A6.5,6.5 0 0,0 98,208"/>
    <path d="M98,208 A6.5,6.5 0 0,0 111,208"/>
    <path d="M111,208 A6.5,6.5 0 0,0 124,208"/>
    <path d="M124,208 A6.5,6.5 0 0,0 137,208"/>
    <path d="M137,208 A6.5,6.5 0 0,0 150,208"/>
    <path d="M150,208 A6.5,6.5 0 0,0 163,208"/>
    <path d="M163,208 A6.5,6.5 0 0,0 176,208"/>
    <path d="M176,208 A6.5,6.5 0 0,0 189,208"/>
    <path d="M189,208 A6.5,6.5 0 0,0 202,208"/>
    <path d="M202,208 A6.5,6.5 0 0,0 215,208"/>
    <path d="M215,208 A6.5,6.5 0 0,0 228,208"/>
    <path d="M228,208 A6.5,6.5 0 0,0 241,208"/>
    <path d="M241,208 A6.5,6.5 0 0,0 254,208"/>
    <path d="M254,208 A6.5,6.5 0 0,0 267,208"/>
    <path d="M267,208 A6.5,6.5 0 0,0 280,208"/>
    <path d="M280,208 A6.5,6.5 0 0,0 293,208"/>

    <!-- ============================================================ -->
    <!-- HORIZONTAL STRUCTURE (bottom section, CENTERED) -->
    <!-- Total width: 90 + 20 + 90 = 200mm -->
    <!-- Centered: (300-200)/2 = 50mm margin each side -->
    <!-- Left lines: x=50 to x=140 -->
    <!-- Pics: x=140 to x=160 (tip at x=160) -->
    <!-- Right lines: x=160 to x=250 -->
    <!-- 6 horizontal lines spaced 13mm, starting y=222 -->
    <!-- y: 222, 235, 248, 261, 274, 287 -->
    <!-- ============================================================ -->

    <!-- Left horizontal lines (6 lines, 90mm long) -->
    <line x1="50" y1="222" x2="140" y2="222"/>
    <line x1="50" y1="235" x2="140" y2="235"/>
    <line x1="50" y1="248" x2="140" y2="248"/>
    <line x1="50" y1="261" x2="140" y2="261"/>
    <line x1="50" y1="274" x2="140" y2="274"/>
    <line x1="50" y1="287" x2="140" y2="287"/>

    <!-- Left arcs (curving left, connecting left endpoints at x=50) -->
    <path d="M50,222 A6.5,6.5 0 0,0 50,235"/>
    <path d="M50,235 A6.5,6.5 0 0,0 50,248"/>
    <path d="M50,248 A6.5,6.5 0 0,0 50,261"/>
    <path d="M50,261 A6.5,6.5 0 0,0 50,274"/>
    <path d="M50,274 A6.5,6.5 0 0,0 50,287"/>

    <!-- Right V-peaks (horizontal, pointing right) -->
    <!-- Between each pair of lines, tip at x=160, at vertical midpoint -->
    <path d="M140,222 L160,228.5 L140,235"/>
    <path d="M140,235 L160,241.5 L140,248"/>
    <path d="M140,248 L160,254.5 L140,261"/>
    <path d="M140,261 L160,267.5 L140,274"/>
    <path d="M140,274 L160,280.5 L140,287"/>

    <!-- Right horizontal lines from peak tips (5 lines, 90mm long) -->
    <line x1="160" y1="228.5" x2="250" y2="228.5"/>
    <line x1="160" y1="241.5" x2="250" y2="241.5"/>
    <line x1="160" y1="254.5" x2="250" y2="254.5"/>
    <line x1="160" y1="267.5" x2="250" y2="267.5"/>
    <line x1="160" y1="280.5" x2="250" y2="280.5"/>

    <!-- Right arcs (curving right, connecting right endpoints at x=250) -->
    <path d="M250,228.5 A6.5,6.5 0 0,1 250,241.5"/>
    <path d="M250,241.5 A6.5,6.5 0 0,1 250,254.5"/>
    <path d="M250,254.5 A6.5,6.5 0 0,1 250,267.5"/>
    <path d="M250,267.5 A6.5,6.5 0 0,1 250,280.5"/>

  </g>

  <!-- ==================== CAROTTES rangée 1 (in V pics, pointing down) ==================== -->
  <!-- V bases at y=98, tips at y=118. Carrot top at y=98 inside V -->
  <g transform="translate(4.3,98)"><path fill="#2E5930" fill-rule="nonzero" transform="matrix(0.025045487778022464,0.0,0.0,0.02508989650807833,-1.6084383395727815,-0.4769384260293279)" d="M 154.762 55.478 L 154.5 91.957 C 146.92164 75.637725 139.34262 59.318692 131.763 43 C 120.84906 43.228129 109.82212 42.371977 99 43.848 C 106.12894 60.266884 114.12867 76.297934 121.739 92.5 C 143.82598 92.675148 165.91303 92.850815 188 93.027 L 188 19 L 155.025 19 L 154.762 55.478 z M 209.037 49.25 C 202.44227 63.766298 195.4758 78.113336 189 92.683 C 200.13157 93.137669 211.28435 92.58384 222.424 92.5 C 229.98623 76.43998 238.08577 60.611168 244.972 44.25 C 239.16774 42.091306 232.22266 43.362368 225.937 43 L 211.875 43 L 209.037 49.25 z M 79.065 114.25 C 74.206289 125.7384 68.095641 136.75163 64.215 148.62 C 98.696136 210.81071 133.919 272.59655 169.25297 334.30852 C 173.13098 345.21829 176.89572 327.74081 180.59187 324.26581 C 213.83237 265.89596 247.12626 207.55146 279.823 148.876 C 274.74348 135.81529 269.17345 122.80286 262.31918 110.56784 C 259.99022 109.23152 256.30154 110.38626 253.454 110 L 80.929 110 L 79.065 114.25 z M 152.254 164 C 158.87204 175.3993 165.50813 186.78816 172.163 198.166 L 201.175 148 L 240.198 148 C 217.60769 186.54926 195.56477 225.42412 172.576 263.737 C 166.23261 256.88685 162.2205 247.93518 157.12201 240.05502 C 139.28714 209.75658 121.65054 179.34013 104.16 148.842 C 117.10888 147.47497 130.22948 148.56559 143.253 148.5 L 152.254 164 z"/></g>
  <g transform="translate(17.3,98)"><path fill="#2E5930" fill-rule="nonzero" transform="matrix(0.025045487778022464,0.0,0.0,0.02508989650807833,-1.6084383395727815,-0.4769384260293279)" d="M 154.762 55.478 L 154.5 91.957 C 146.92164 75.637725 139.34262 59.318692 131.763 43 C 120.84906 43.228129 109.82212 42.371977 99 43.848 C 106.12894 60.266884 114.12867 76.297934 121.739 92.5 C 143.82598 92.675148 165.91303 92.850815 188 93.027 L 188 19 L 155.025 19 L 154.762 55.478 z M 209.037 49.25 C 202.44227 63.766298 195.4758 78.113336 189 92.683 C 200.13157 93.137669 211.28435 92.58384 222.424 92.5 C 229.98623 76.43998 238.08577 60.611168 244.972 44.25 C 239.16774 42.091306 232.22266 43.362368 225.937 43 L 211.875 43 L 209.037 49.25 z M 79.065 114.25 C 74.206289 125.7384 68.095641 136.75163 64.215 148.62 C 98.696136 210.81071 133.919 272.59655 169.25297 334.30852 C 173.13098 345.21829 176.89572 327.74081 180.59187 324.26581 C 213.83237 265.89596 247.12626 207.55146 279.823 148.876 C 274.74348 135.81529 269.17345 122.80286 262.31918 110.56784 C 259.99022 109.23152 256.30154 110.38626 253.454 110 L 80.929 110 L 79.065 114.25 z M 152.254 164 C 158.87204 175.3993 165.50813 186.78816 172.163 198.166 L 201.175 148 L 240.198 148 C 217.60769 186.54926 195.56477 225.42412 172.576 263.737 C 166.23261 256.88685 162.2205 247.93518 157.12201 240.05502 C 139.28714 209.75658 121.65054 179.34013 104.16 148.842 C 117.10888 147.47497 130.22948 148.56559 143.253 148.5 L 152.254 164 z"/></g>
  <g transform="translate(30.3,98)"><path fill="#2E5930" fill-rule="nonzero" transform="matrix(0.025045487778022464,0.0,0.0,0.02508989650807833,-1.6084383395727815,-0.4769384260293279)" d="M 154.762 55.478 L 154.5 91.957 C 146.92164 75.637725 139.34262 59.318692 131.763 43 C 120.84906 43.228129 109.82212 42.371977 99 43.848 C 106.12894 60.266884 114.12867 76.297934 121.739 92.5 C 143.82598 92.675148 165.91303 92.850815 188 93.027 L 188 19 L 155.025 19 L 154.762 55.478 z M 209.037 49.25 C 202.44227 63.766298 195.4758 78.113336 189 92.683 C 200.13157 93.137669 211.28435 92.58384 222.424 92.5 C 229.98623 76.43998 238.08577 60.611168 244.972 44.25 C 239.16774 42.091306 232.22266 43.362368 225.937 43 L 211.875 43 L 209.037 49.25 z M 79.065 114.25 C 74.206289 125.7384 68.095641 136.75163 64.215 148.62 C 98.696136 210.81071 133.919 272.59655 169.25297 334.30852 C 173.13098 345.21829 176.89572 327.74081 180.59187 324.26581 C 213.83237 265.89596 247.12626 207.55146 279.823 148.876 C 274.74348 135.81529 269.17345 122.80286 262.31918 110.56784 C 259.99022 109.23152 256.30154 110.38626 253.454 110 L 80.929 110 L 79.065 114.25 z M 152.254 164 C 158.87204 175.3993 165.50813 186.78816 172.163 198.166 L 201.175 148 L 240.198 148 C 217.60769 186.54926 195.56477 225.42412 172.576 263.737 C 166.23261 256.88685 162.2205 247.93518 157.12201 240.05502 C 139.28714 209.75658 121.65054 179.34013 104.16 148.842 C 117.10888 147.47497 130.22948 148.56559 143.253 148.5 L 152.254 164 z"/></g>
  <g transform="translate(43.3,98)"><path fill="#2E5930" fill-rule="nonzero" transform="matrix(0.025045487778022464,0.0,0.0,0.02508989650807833,-1.6084383395727815,-0.4769384260293279)" d="M 154.762 55.478 L 154.5 91.957 C 146.92164 75.637725 139.34262 59.318692 131.763 43 C 120.84906 43.228129 109.82212 42.371977 99 43.848 C 106.12894 60.266884 114.12867 76.297934 121.739 92.5 C 143.82598 92.675148 165.91303 92.850815 188 93.027 L 188 19 L 155.025 19 L 154.762 55.478 z M 209.037 49.25 C 202.44227 63.766298 195.4758 78.113336 189 92.683 C 200.13157 93.137669 211.28435 92.58384 222.424 92.5 C 229.98623 76.43998 238.08577 60.611168 244.972 44.25 C 239.16774 42.091306 232.22266 43.362368 225.937 43 L 211.875 43 L 209.037 49.25 z M 79.065 114.25 C 74.206289 125.7384 68.095641 136.75163 64.215 148.62 C 98.696136 210.81071 133.919 272.59655 169.25297 334.30852 C 173.13098 345.21829 176.89572 327.74081 180.59187 324.26581 C 213.83237 265.89596 247.12626 207.55146 279.823 148.876 C 274.74348 135.81529 269.17345 122.80286 262.31918 110.56784 C 259.99022 109.23152 256.30154 110.38626 253.454 110 L 80.929 110 L 79.065 114.25 z M 152.254 164 C 158.87204 175.3993 165.50813 186.78816 172.163 198.166 L 201.175 148 L 240.198 148 C 217.60769 186.54926 195.56477 225.42412 172.576 263.737 C 166.23261 256.88685 162.2205 247.93518 157.12201 240.05502 C 139.28714 209.75658 121.65054 179.34013 104.16 148.842 C 117.10888 147.47497 130.22948 148.56559 143.253 148.5 L 152.254 164 z"/></g>
  <g transform="translate(56.3,98)"><path fill="#2E5930" fill-rule="nonzero" transform="matrix(0.025045487778022464,0.0,0.0,0.02508989650807833,-1.6084383395727815,-0.4769384260293279)" d="M 154.762 55.478 L 154.5 91.957 C 146.92164 75.637725 139.34262 59.318692 131.763 43 C 120.84906 43.228129 109.82212 42.371977 99 43.848 C 106.12894 60.266884 114.12867 76.297934 121.739 92.5 C 143.82598 92.675148 165.91303 92.850815 188 93.027 L 188 19 L 155.025 19 L 154.762 55.478 z M 209.037 49.25 C 202.44227 63.766298 195.4758 78.113336 189 92.683 C 200.13157 93.137669 211.28435 92.58384 222.424 92.5 C 229.98623 76.43998 238.08577 60.611168 244.972 44.25 C 239.16774 42.091306 232.22266 43.362368 225.937 43 L 211.875 43 L 209.037 49.25 z M 79.065 114.25 C 74.206289 125.7384 68.095641 136.75163 64.215 148.62 C 98.696136 210.81071 133.919 272.59655 169.25297 334.30852 C 173.13098 345.21829 176.89572 327.74081 180.59187 324.26581 C 213.83237 265.89596 247.12626 207.55146 279.823 148.876 C 274.74348 135.81529 269.17345 122.80286 262.31918 110.56784 C 259.99022 109.23152 256.30154 110.38626 253.454 110 L 80.929 110 L 79.065 114.25 z M 152.254 164 C 158.87204 175.3993 165.50813 186.78816 172.163 198.166 L 201.175 148 L 240.198 148 C 217.60769 186.54926 195.56477 225.42412 172.576 263.737 C 166.23261 256.88685 162.2205 247.93518 157.12201 240.05502 C 139.28714 209.75658 121.65054 179.34013 104.16 148.842 C 117.10888 147.47497 130.22948 148.56559 143.253 148.5 L 152.254 164 z"/></g>
  <g transform="translate(69.3,98)"><path fill="#2E5930" fill-rule="nonzero" transform="matrix(0.025045487778022464,0.0,0.0,0.02508989650807833,-1.6084383395727815,-0.4769384260293279)" d="M 154.762 55.478 L 154.5 91.957 C 146.92164 75.637725 139.34262 59.318692 131.763 43 C 120.84906 43.228129 109.82212 42.371977 99 43.848 C 106.12894 60.266884 114.12867 76.297934 121.739 92.5 C 143.82598 92.675148 165.91303 92.850815 188 93.027 L 188 19 L 155.025 19 L 154.762 55.478 z M 209.037 49.25 C 202.44227 63.766298 195.4758 78.113336 189 92.683 C 200.13157 93.137669 211.28435 92.58384 222.424 92.5 C 229.98623 76.43998 238.08577 60.611168 244.972 44.25 C 239.16774 42.091306 232.22266 43.362368 225.937 43 L 211.875 43 L 209.037 49.25 z M 79.065 114.25 C 74.206289 125.7384 68.095641 136.75163 64.215 148.62 C 98.696136 210.81071 133.919 272.59655 169.25297 334.30852 C 173.13098 345.21829 176.89572 327.74081 180.59187 324.26581 C 213.83237 265.89596 247.12626 207.55146 279.823 148.876 C 274.74348 135.81529 269.17345 122.80286 262.31918 110.56784 C 259.99022 109.23152 256.30154 110.38626 253.454 110 L 80.929 110 L 79.065 114.25 z M 152.254 164 C 158.87204 175.3993 165.50813 186.78816 172.163 198.166 L 201.175 148 L 240.198 148 C 217.60769 186.54926 195.56477 225.42412 172.576 263.737 C 166.23261 256.88685 162.2205 247.93518 157.12201 240.05502 C 139.28714 209.75658 121.65054 179.34013 104.16 148.842 C 117.10888 147.47497 130.22948 148.56559 143.253 148.5 L 152.254 164 z"/></g>
  <g transform="translate(82.3,98)"><path fill="#2E5930" fill-rule="nonzero" transform="matrix(0.025045487778022464,0.0,0.0,0.02508989650807833,-1.6084383395727815,-0.4769384260293279)" d="M 154.762 55.478 L 154.5 91.957 C 146.92164 75.637725 139.34262 59.318692 131.763 43 C 120.84906 43.228129 109.82212 42.371977 99 43.848 C 106.12894 60.266884 114.12867 76.297934 121.739 92.5 C 143.82598 92.675148 165.91303 92.850815 188 93.027 L 188 19 L 155.025 19 L 154.762 55.478 z M 209.037 49.25 C 202.44227 63.766298 195.4758 78.113336 189 92.683 C 200.13157 93.137669 211.28435 92.58384 222.424 92.5 C 229.98623 76.43998 238.08577 60.611168 244.972 44.25 C 239.16774 42.091306 232.22266 43.362368 225.937 43 L 211.875 43 L 209.037 49.25 z M 79.065 114.25 C 74.206289 125.7384 68.095641 136.75163 64.215 148.62 C 98.696136 210.81071 133.919 272.59655 169.25297 334.30852 C 173.13098 345.21829 176.89572 327.74081 180.59187 324.26581 C 213.83237 265.89596 247.12626 207.55146 279.823 148.876 C 274.74348 135.81529 269.17345 122.80286 262.31918 110.56784 C 259.99022 109.23152 256.30154 110.38626 253.454 110 L 80.929 110 L 79.065 114.25 z M 152.254 164 C 158.87204 175.3993 165.50813 186.78816 172.163 198.166 L 201.175 148 L 240.198 148 C 217.60769 186.54926 195.56477 225.42412 172.576 263.737 C 166.23261 256.88685 162.2205 247.93518 157.12201 240.05502 C 139.28714 209.75658 121.65054 179.34013 104.16 148.842 C 117.10888 147.47497 130.22948 148.56559 143.253 148.5 L 152.254 164 z"/></g>
  <g transform="translate(95.3,98)"><path fill="#2E5930" fill-rule="nonzero" transform="matrix(0.025045487778022464,0.0,0.0,0.02508989650807833,-1.6084383395727815,-0.4769384260293279)" d="M 154.762 55.478 L 154.5 91.957 C 146.92164 75.637725 139.34262 59.318692 131.763 43 C 120.84906 43.228129 109.82212 42.371977 99 43.848 C 106.12894 60.266884 114.12867 76.297934 121.739 92.5 C 143.82598 92.675148 165.91303 92.850815 188 93.027 L 188 19 L 155.025 19 L 154.762 55.478 z M 209.037 49.25 C 202.44227 63.766298 195.4758 78.113336 189 92.683 C 200.13157 93.137669 211.28435 92.58384 222.424 92.5 C 229.98623 76.43998 238.08577 60.611168 244.972 44.25 C 239.16774 42.091306 232.22266 43.362368 225.937 43 L 211.875 43 L 209.037 49.25 z M 79.065 114.25 C 74.206289 125.7384 68.095641 136.75163 64.215 148.62 C 98.696136 210.81071 133.919 272.59655 169.25297 334.30852 C 173.13098 345.21829 176.89572 327.74081 180.59187 324.26581 C 213.83237 265.89596 247.12626 207.55146 279.823 148.876 C 274.74348 135.81529 269.17345 122.80286 262.31918 110.56784 C 259.99022 109.23152 256.30154 110.38626 253.454 110 L 80.929 110 L 79.065 114.25 z M 152.254 164 C 158.87204 175.3993 165.50813 186.78816 172.163 198.166 L 201.175 148 L 240.198 148 C 217.60769 186.54926 195.56477 225.42412 172.576 263.737 C 166.23261 256.88685 162.2205 247.93518 157.12201 240.05502 C 139.28714 209.75658 121.65054 179.34013 104.16 148.842 C 117.10888 147.47497 130.22948 148.56559 143.253 148.5 L 152.254 164 z"/></g>
  <g transform="translate(108.3,98)"><path fill="#2E5930" fill-rule="nonzero" transform="matrix(0.025045487778022464,0.0,0.0,0.02508989650807833,-1.6084383395727815,-0.4769384260293279)" d="M 154.762 55.478 L 154.5 91.957 C 146.92164 75.637725 139.34262 59.318692 131.763 43 C 120.84906 43.228129 109.82212 42.371977 99 43.848 C 106.12894 60.266884 114.12867 76.297934 121.739 92.5 C 143.82598 92.675148 165.91303 92.850815 188 93.027 L 188 19 L 155.025 19 L 154.762 55.478 z M 209.037 49.25 C 202.44227 63.766298 195.4758 78.113336 189 92.683 C 200.13157 93.137669 211.28435 92.58384 222.424 92.5 C 229.98623 76.43998 238.08577 60.611168 244.972 44.25 C 239.16774 42.091306 232.22266 43.362368 225.937 43 L 211.875 43 L 209.037 49.25 z M 79.065 114.25 C 74.206289 125.7384 68.095641 136.75163 64.215 148.62 C 98.696136 210.81071 133.919 272.59655 169.25297 334.30852 C 173.13098 345.21829 176.89572 327.74081 180.59187 324.26581 C 213.83237 265.89596 247.12626 207.55146 279.823 148.876 C 274.74348 135.81529 269.17345 122.80286 262.31918 110.56784 C 259.99022 109.23152 256.30154 110.38626 253.454 110 L 80.929 110 L 79.065 114.25 z M 152.254 164 C 158.87204 175.3993 165.50813 186.78816 172.163 198.166 L 201.175 148 L 240.198 148 C 217.60769 186.54926 195.56477 225.42412 172.576 263.737 C 166.23261 256.88685 162.2205 247.93518 157.12201 240.05502 C 139.28714 209.75658 121.65054 179.34013 104.16 148.842 C 117.10888 147.47497 130.22948 148.56559 143.253 148.5 L 152.254 164 z"/></g>
  <g transform="translate(121.3,98)"><path fill="#2E5930" fill-rule="nonzero" transform="matrix(0.025045487778022464,0.0,0.0,0.02508989650807833,-1.6084383395727815,-0.4769384260293279)" d="M 154.762 55.478 L 154.5 91.957 C 146.92164 75.637725 139.34262 59.318692 131.763 43 C 120.84906 43.228129 109.82212 42.371977 99 43.848 C 106.12894 60.266884 114.12867 76.297934 121.739 92.5 C 143.82598 92.675148 165.91303 92.850815 188 93.027 L 188 19 L 155.025 19 L 154.762 55.478 z M 209.037 49.25 C 202.44227 63.766298 195.4758 78.113336 189 92.683 C 200.13157 93.137669 211.28435 92.58384 222.424 92.5 C 229.98623 76.43998 238.08577 60.611168 244.972 44.25 C 239.16774 42.091306 232.22266 43.362368 225.937 43 L 211.875 43 L 209.037 49.25 z M 79.065 114.25 C 74.206289 125.7384 68.095641 136.75163 64.215 148.62 C 98.696136 210.81071 133.919 272.59655 169.25297 334.30852 C 173.13098 345.21829 176.89572 327.74081 180.59187 324.26581 C 213.83237 265.89596 247.12626 207.55146 279.823 148.876 C 274.74348 135.81529 269.17345 122.80286 262.31918 110.56784 C 259.99022 109.23152 256.30154 110.38626 253.454 110 L 80.929 110 L 79.065 114.25 z M 152.254 164 C 158.87204 175.3993 165.50813 186.78816 172.163 198.166 L 201.175 148 L 240.198 148 C 217.60769 186.54926 195.56477 225.42412 172.576 263.737 C 166.23261 256.88685 162.2205 247.93518 157.12201 240.05502 C 139.28714 209.75658 121.65054 179.34013 104.16 148.842 C 117.10888 147.47497 130.22948 148.56559 143.253 148.5 L 152.254 164 z"/></g>
  <g transform="translate(134.3,98)"><path fill="#2E5930" fill-rule="nonzero" transform="matrix(0.025045487778022464,0.0,0.0,0.02508989650807833,-1.6084383395727815,-0.4769384260293279)" d="M 154.762 55.478 L 154.5 91.957 C 146.92164 75.637725 139.34262 59.318692 131.763 43 C 120.84906 43.228129 109.82212 42.371977 99 43.848 C 106.12894 60.266884 114.12867 76.297934 121.739 92.5 C 143.82598 92.675148 165.91303 92.850815 188 93.027 L 188 19 L 155.025 19 L 154.762 55.478 z M 209.037 49.25 C 202.44227 63.766298 195.4758 78.113336 189 92.683 C 200.13157 93.137669 211.28435 92.58384 222.424 92.5 C 229.98623 76.43998 238.08577 60.611168 244.972 44.25 C 239.16774 42.091306 232.22266 43.362368 225.937 43 L 211.875 43 L 209.037 49.25 z M 79.065 114.25 C 74.206289 125.7384 68.095641 136.75163 64.215 148.62 C 98.696136 210.81071 133.919 272.59655 169.25297 334.30852 C 173.13098 345.21829 176.89572 327.74081 180.59187 324.26581 C 213.83237 265.89596 247.12626 207.55146 279.823 148.876 C 274.74348 135.81529 269.17345 122.80286 262.31918 110.56784 C 259.99022 109.23152 256.30154 110.38626 253.454 110 L 80.929 110 L 79.065 114.25 z M 152.254 164 C 158.87204 175.3993 165.50813 186.78816 172.163 198.166 L 201.175 148 L 240.198 148 C 217.60769 186.54926 195.56477 225.42412 172.576 263.737 C 166.23261 256.88685 162.2205 247.93518 157.12201 240.05502 C 139.28714 209.75658 121.65054 179.34013 104.16 148.842 C 117.10888 147.47497 130.22948 148.56559 143.253 148.5 L 152.254 164 z"/></g>
  <g transform="translate(147.3,98)"><path fill="#2E5930" fill-rule="nonzero" transform="matrix(0.025045487778022464,0.0,0.0,0.02508989650807833,-1.6084383395727815,-0.4769384260293279)" d="M 154.762 55.478 L 154.5 91.957 C 146.92164 75.637725 139.34262 59.318692 131.763 43 C 120.84906 43.228129 109.82212 42.371977 99 43.848 C 106.12894 60.266884 114.12867 76.297934 121.739 92.5 C 143.82598 92.675148 165.91303 92.850815 188 93.027 L 188 19 L 155.025 19 L 154.762 55.478 z M 209.037 49.25 C 202.44227 63.766298 195.4758 78.113336 189 92.683 C 200.13157 93.137669 211.28435 92.58384 222.424 92.5 C 229.98623 76.43998 238.08577 60.611168 244.972 44.25 C 239.16774 42.091306 232.22266 43.362368 225.937 43 L 211.875 43 L 209.037 49.25 z M 79.065 114.25 C 74.206289 125.7384 68.095641 136.75163 64.215 148.62 C 98.696136 210.81071 133.919 272.59655 169.25297 334.30852 C 173.13098 345.21829 176.89572 327.74081 180.59187 324.26581 C 213.83237 265.89596 247.12626 207.55146 279.823 148.876 C 274.74348 135.81529 269.17345 122.80286 262.31918 110.56784 C 259.99022 109.23152 256.30154 110.38626 253.454 110 L 80.929 110 L 79.065 114.25 z M 152.254 164 C 158.87204 175.3993 165.50813 186.78816 172.163 198.166 L 201.175 148 L 240.198 148 C 217.60769 186.54926 195.56477 225.42412 172.576 263.737 C 166.23261 256.88685 162.2205 247.93518 157.12201 240.05502 C 139.28714 209.75658 121.65054 179.34013 104.16 148.842 C 117.10888 147.47497 130.22948 148.56559 143.253 148.5 L 152.254 164 z"/></g>
  <g transform="translate(160.3,98)"><path fill="#2E5930" fill-rule="nonzero" transform="matrix(0.025045487778022464,0.0,0.0,0.02508989650807833,-1.6084383395727815,-0.4769384260293279)" d="M 154.762 55.478 L 154.5 91.957 C 146.92164 75.637725 139.34262 59.318692 131.763 43 C 120.84906 43.228129 109.82212 42.371977 99 43.848 C 106.12894 60.266884 114.12867 76.297934 121.739 92.5 C 143.82598 92.675148 165.91303 92.850815 188 93.027 L 188 19 L 155.025 19 L 154.762 55.478 z M 209.037 49.25 C 202.44227 63.766298 195.4758 78.113336 189 92.683 C 200.13157 93.137669 211.28435 92.58384 222.424 92.5 C 229.98623 76.43998 238.08577 60.611168 244.972 44.25 C 239.16774 42.091306 232.22266 43.362368 225.937 43 L 211.875 43 L 209.037 49.25 z M 79.065 114.25 C 74.206289 125.7384 68.095641 136.75163 64.215 148.62 C 98.696136 210.81071 133.919 272.59655 169.25297 334.30852 C 173.13098 345.21829 176.89572 327.74081 180.59187 324.26581 C 213.83237 265.89596 247.12626 207.55146 279.823 148.876 C 274.74348 135.81529 269.17345 122.80286 262.31918 110.56784 C 259.99022 109.23152 256.30154 110.38626 253.454 110 L 80.929 110 L 79.065 114.25 z M 152.254 164 C 158.87204 175.3993 165.50813 186.78816 172.163 198.166 L 201.175 148 L 240.198 148 C 217.60769 186.54926 195.56477 225.42412 172.576 263.737 C 166.23261 256.88685 162.2205 247.93518 157.12201 240.05502 C 139.28714 209.75658 121.65054 179.34013 104.16 148.842 C 117.10888 147.47497 130.22948 148.56559 143.253 148.5 L 152.254 164 z"/></g>
  <g transform="translate(173.3,98)"><path fill="#2E5930" fill-rule="nonzero" transform="matrix(0.025045487778022464,0.0,0.0,0.02508989650807833,-1.6084383395727815,-0.4769384260293279)" d="M 154.762 55.478 L 154.5 91.957 C 146.92164 75.637725 139.34262 59.318692 131.763 43 C 120.84906 43.228129 109.82212 42.371977 99 43.848 C 106.12894 60.266884 114.12867 76.297934 121.739 92.5 C 143.82598 92.675148 165.91303 92.850815 188 93.027 L 188 19 L 155.025 19 L 154.762 55.478 z M 209.037 49.25 C 202.44227 63.766298 195.4758 78.113336 189 92.683 C 200.13157 93.137669 211.28435 92.58384 222.424 92.5 C 229.98623 76.43998 238.08577 60.611168 244.972 44.25 C 239.16774 42.091306 232.22266 43.362368 225.937 43 L 211.875 43 L 209.037 49.25 z M 79.065 114.25 C 74.206289 125.7384 68.095641 136.75163 64.215 148.62 C 98.696136 210.81071 133.919 272.59655 169.25297 334.30852 C 173.13098 345.21829 176.89572 327.74081 180.59187 324.26581 C 213.83237 265.89596 247.12626 207.55146 279.823 148.876 C 274.74348 135.81529 269.17345 122.80286 262.31918 110.56784 C 259.99022 109.23152 256.30154 110.38626 253.454 110 L 80.929 110 L 79.065 114.25 z M 152.254 164 C 158.87204 175.3993 165.50813 186.78816 172.163 198.166 L 201.175 148 L 240.198 148 C 217.60769 186.54926 195.56477 225.42412 172.576 263.737 C 166.23261 256.88685 162.2205 247.93518 157.12201 240.05502 C 139.28714 209.75658 121.65054 179.34013 104.16 148.842 C 117.10888 147.47497 130.22948 148.56559 143.253 148.5 L 152.254 164 z"/></g>
  <g transform="translate(186.3,98)"><path fill="#2E5930" fill-rule="nonzero" transform="matrix(0.025045487778022464,0.0,0.0,0.02508989650807833,-1.6084383395727815,-0.4769384260293279)" d="M 154.762 55.478 L 154.5 91.957 C 146.92164 75.637725 139.34262 59.318692 131.763 43 C 120.84906 43.228129 109.82212 42.371977 99 43.848 C 106.12894 60.266884 114.12867 76.297934 121.739 92.5 C 143.82598 92.675148 165.91303 92.850815 188 93.027 L 188 19 L 155.025 19 L 154.762 55.478 z M 209.037 49.25 C 202.44227 63.766298 195.4758 78.113336 189 92.683 C 200.13157 93.137669 211.28435 92.58384 222.424 92.5 C 229.98623 76.43998 238.08577 60.611168 244.972 44.25 C 239.16774 42.091306 232.22266 43.362368 225.937 43 L 211.875 43 L 209.037 49.25 z M 79.065 114.25 C 74.206289 125.7384 68.095641 136.75163 64.215 148.62 C 98.696136 210.81071 133.919 272.59655 169.25297 334.30852 C 173.13098 345.21829 176.89572 327.74081 180.59187 324.26581 C 213.83237 265.89596 247.12626 207.55146 279.823 148.876 C 274.74348 135.81529 269.17345 122.80286 262.31918 110.56784 C 259.99022 109.23152 256.30154 110.38626 253.454 110 L 80.929 110 L 79.065 114.25 z M 152.254 164 C 158.87204 175.3993 165.50813 186.78816 172.163 198.166 L 201.175 148 L 240.198 148 C 217.60769 186.54926 195.56477 225.42412 172.576 263.737 C 166.23261 256.88685 162.2205 247.93518 157.12201 240.05502 C 139.28714 209.75658 121.65054 179.34013 104.16 148.842 C 117.10888 147.47497 130.22948 148.56559 143.253 148.5 L 152.254 164 z"/></g>
  <g transform="translate(199.3,98)"><path fill="#2E5930" fill-rule="nonzero" transform="matrix(0.025045487778022464,0.0,0.0,0.02508989650807833,-1.6084383395727815,-0.4769384260293279)" d="M 154.762 55.478 L 154.5 91.957 C 146.92164 75.637725 139.34262 59.318692 131.763 43 C 120.84906 43.228129 109.82212 42.371977 99 43.848 C 106.12894 60.266884 114.12867 76.297934 121.739 92.5 C 143.82598 92.675148 165.91303 92.850815 188 93.027 L 188 19 L 155.025 19 L 154.762 55.478 z M 209.037 49.25 C 202.44227 63.766298 195.4758 78.113336 189 92.683 C 200.13157 93.137669 211.28435 92.58384 222.424 92.5 C 229.98623 76.43998 238.08577 60.611168 244.972 44.25 C 239.16774 42.091306 232.22266 43.362368 225.937 43 L 211.875 43 L 209.037 49.25 z M 79.065 114.25 C 74.206289 125.7384 68.095641 136.75163 64.215 148.62 C 98.696136 210.81071 133.919 272.59655 169.25297 334.30852 C 173.13098 345.21829 176.89572 327.74081 180.59187 324.26581 C 213.83237 265.89596 247.12626 207.55146 279.823 148.876 C 274.74348 135.81529 269.17345 122.80286 262.31918 110.56784 C 259.99022 109.23152 256.30154 110.38626 253.454 110 L 80.929 110 L 79.065 114.25 z M 152.254 164 C 158.87204 175.3993 165.50813 186.78816 172.163 198.166 L 201.175 148 L 240.198 148 C 217.60769 186.54926 195.56477 225.42412 172.576 263.737 C 166.23261 256.88685 162.2205 247.93518 157.12201 240.05502 C 139.28714 209.75658 121.65054 179.34013 104.16 148.842 C 117.10888 147.47497 130.22948 148.56559 143.253 148.5 L 152.254 164 z"/></g>
  <g transform="translate(212.3,98)"><path fill="#2E5930" fill-rule="nonzero" transform="matrix(0.025045487778022464,0.0,0.0,0.02508989650807833,-1.6084383395727815,-0.4769384260293279)" d="M 154.762 55.478 L 154.5 91.957 C 146.92164 75.637725 139.34262 59.318692 131.763 43 C 120.84906 43.228129 109.82212 42.371977 99 43.848 C 106.12894 60.266884 114.12867 76.297934 121.739 92.5 C 143.82598 92.675148 165.91303 92.850815 188 93.027 L 188 19 L 155.025 19 L 154.762 55.478 z M 209.037 49.25 C 202.44227 63.766298 195.4758 78.113336 189 92.683 C 200.13157 93.137669 211.28435 92.58384 222.424 92.5 C 229.98623 76.43998 238.08577 60.611168 244.972 44.25 C 239.16774 42.091306 232.22266 43.362368 225.937 43 L 211.875 43 L 209.037 49.25 z M 79.065 114.25 C 74.206289 125.7384 68.095641 136.75163 64.215 148.62 C 98.696136 210.81071 133.919 272.59655 169.25297 334.30852 C 173.13098 345.21829 176.89572 327.74081 180.59187 324.26581 C 213.83237 265.89596 247.12626 207.55146 279.823 148.876 C 274.74348 135.81529 269.17345 122.80286 262.31918 110.56784 C 259.99022 109.23152 256.30154 110.38626 253.454 110 L 80.929 110 L 79.065 114.25 z M 152.254 164 C 158.87204 175.3993 165.50813 186.78816 172.163 198.166 L 201.175 148 L 240.198 148 C 217.60769 186.54926 195.56477 225.42412 172.576 263.737 C 166.23261 256.88685 162.2205 247.93518 157.12201 240.05502 C 139.28714 209.75658 121.65054 179.34013 104.16 148.842 C 117.10888 147.47497 130.22948 148.56559 143.253 148.5 L 152.254 164 z"/></g>
  <g transform="translate(225.3,98)"><path fill="#2E5930" fill-rule="nonzero" transform="matrix(0.025045487778022464,0.0,0.0,0.02508989650807833,-1.6084383395727815,-0.4769384260293279)" d="M 154.762 55.478 L 154.5 91.957 C 146.92164 75.637725 139.34262 59.318692 131.763 43 C 120.84906 43.228129 109.82212 42.371977 99 43.848 C 106.12894 60.266884 114.12867 76.297934 121.739 92.5 C 143.82598 92.675148 165.91303 92.850815 188 93.027 L 188 19 L 155.025 19 L 154.762 55.478 z M 209.037 49.25 C 202.44227 63.766298 195.4758 78.113336 189 92.683 C 200.13157 93.137669 211.28435 92.58384 222.424 92.5 C 229.98623 76.43998 238.08577 60.611168 244.972 44.25 C 239.16774 42.091306 232.22266 43.362368 225.937 43 L 211.875 43 L 209.037 49.25 z M 79.065 114.25 C 74.206289 125.7384 68.095641 136.75163 64.215 148.62 C 98.696136 210.81071 133.919 272.59655 169.25297 334.30852 C 173.13098 345.21829 176.89572 327.74081 180.59187 324.26581 C 213.83237 265.89596 247.12626 207.55146 279.823 148.876 C 274.74348 135.81529 269.17345 122.80286 262.31918 110.56784 C 259.99022 109.23152 256.30154 110.38626 253.454 110 L 80.929 110 L 79.065 114.25 z M 152.254 164 C 158.87204 175.3993 165.50813 186.78816 172.163 198.166 L 201.175 148 L 240.198 148 C 217.60769 186.54926 195.56477 225.42412 172.576 263.737 C 166.23261 256.88685 162.2205 247.93518 157.12201 240.05502 C 139.28714 209.75658 121.65054 179.34013 104.16 148.842 C 117.10888 147.47497 130.22948 148.56559 143.253 148.5 L 152.254 164 z"/></g>
  <g transform="translate(238.3,98)"><path fill="#2E5930" fill-rule="nonzero" transform="matrix(0.025045487778022464,0.0,0.0,0.02508989650807833,-1.6084383395727815,-0.4769384260293279)" d="M 154.762 55.478 L 154.5 91.957 C 146.92164 75.637725 139.34262 59.318692 131.763 43 C 120.84906 43.228129 109.82212 42.371977 99 43.848 C 106.12894 60.266884 114.12867 76.297934 121.739 92.5 C 143.82598 92.675148 165.91303 92.850815 188 93.027 L 188 19 L 155.025 19 L 154.762 55.478 z M 209.037 49.25 C 202.44227 63.766298 195.4758 78.113336 189 92.683 C 200.13157 93.137669 211.28435 92.58384 222.424 92.5 C 229.98623 76.43998 238.08577 60.611168 244.972 44.25 C 239.16774 42.091306 232.22266 43.362368 225.937 43 L 211.875 43 L 209.037 49.25 z M 79.065 114.25 C 74.206289 125.7384 68.095641 136.75163 64.215 148.62 C 98.696136 210.81071 133.919 272.59655 169.25297 334.30852 C 173.13098 345.21829 176.89572 327.74081 180.59187 324.26581 C 213.83237 265.89596 247.12626 207.55146 279.823 148.876 C 274.74348 135.81529 269.17345 122.80286 262.31918 110.56784 C 259.99022 109.23152 256.30154 110.38626 253.454 110 L 80.929 110 L 79.065 114.25 z M 152.254 164 C 158.87204 175.3993 165.50813 186.78816 172.163 198.166 L 201.175 148 L 240.198 148 C 217.60769 186.54926 195.56477 225.42412 172.576 263.737 C 166.23261 256.88685 162.2205 247.93518 157.12201 240.05502 C 139.28714 209.75658 121.65054 179.34013 104.16 148.842 C 117.10888 147.47497 130.22948 148.56559 143.253 148.5 L 152.254 164 z"/></g>
  <g transform="translate(251.3,98)"><path fill="#2E5930" fill-rule="nonzero" transform="matrix(0.025045487778022464,0.0,0.0,0.02508989650807833,-1.6084383395727815,-0.4769384260293279)" d="M 154.762 55.478 L 154.5 91.957 C 146.92164 75.637725 139.34262 59.318692 131.763 43 C 120.84906 43.228129 109.82212 42.371977 99 43.848 C 106.12894 60.266884 114.12867 76.297934 121.739 92.5 C 143.82598 92.675148 165.91303 92.850815 188 93.027 L 188 19 L 155.025 19 L 154.762 55.478 z M 209.037 49.25 C 202.44227 63.766298 195.4758 78.113336 189 92.683 C 200.13157 93.137669 211.28435 92.58384 222.424 92.5 C 229.98623 76.43998 238.08577 60.611168 244.972 44.25 C 239.16774 42.091306 232.22266 43.362368 225.937 43 L 211.875 43 L 209.037 49.25 z M 79.065 114.25 C 74.206289 125.7384 68.095641 136.75163 64.215 148.62 C 98.696136 210.81071 133.919 272.59655 169.25297 334.30852 C 173.13098 345.21829 176.89572 327.74081 180.59187 324.26581 C 213.83237 265.89596 247.12626 207.55146 279.823 148.876 C 274.74348 135.81529 269.17345 122.80286 262.31918 110.56784 C 259.99022 109.23152 256.30154 110.38626 253.454 110 L 80.929 110 L 79.065 114.25 z M 152.254 164 C 158.87204 175.3993 165.50813 186.78816 172.163 198.166 L 201.175 148 L 240.198 148 C 217.60769 186.54926 195.56477 225.42412 172.576 263.737 C 166.23261 256.88685 162.2205 247.93518 157.12201 240.05502 C 139.28714 209.75658 121.65054 179.34013 104.16 148.842 C 117.10888 147.47497 130.22948 148.56559 143.253 148.5 L 152.254 164 z"/></g>
  <g transform="translate(264.3,98)"><path fill="#2E5930" fill-rule="nonzero" transform="matrix(0.025045487778022464,0.0,0.0,0.02508989650807833,-1.6084383395727815,-0.4769384260293279)" d="M 154.762 55.478 L 154.5 91.957 C 146.92164 75.637725 139.34262 59.318692 131.763 43 C 120.84906 43.228129 109.82212 42.371977 99 43.848 C 106.12894 60.266884 114.12867 76.297934 121.739 92.5 C 143.82598 92.675148 165.91303 92.850815 188 93.027 L 188 19 L 155.025 19 L 154.762 55.478 z M 209.037 49.25 C 202.44227 63.766298 195.4758 78.113336 189 92.683 C 200.13157 93.137669 211.28435 92.58384 222.424 92.5 C 229.98623 76.43998 238.08577 60.611168 244.972 44.25 C 239.16774 42.091306 232.22266 43.362368 225.937 43 L 211.875 43 L 209.037 49.25 z M 79.065 114.25 C 74.206289 125.7384 68.095641 136.75163 64.215 148.62 C 98.696136 210.81071 133.919 272.59655 169.25297 334.30852 C 173.13098 345.21829 176.89572 327.74081 180.59187 324.26581 C 213.83237 265.89596 247.12626 207.55146 279.823 148.876 C 274.74348 135.81529 269.17345 122.80286 262.31918 110.56784 C 259.99022 109.23152 256.30154 110.38626 253.454 110 L 80.929 110 L 79.065 114.25 z M 152.254 164 C 158.87204 175.3993 165.50813 186.78816 172.163 198.166 L 201.175 148 L 240.198 148 C 217.60769 186.54926 195.56477 225.42412 172.576 263.737 C 166.23261 256.88685 162.2205 247.93518 157.12201 240.05502 C 139.28714 209.75658 121.65054 179.34013 104.16 148.842 C 117.10888 147.47497 130.22948 148.56559 143.253 148.5 L 152.254 164 z"/></g>
  <g transform="translate(277.3,98)"><path fill="#2E5930" fill-rule="nonzero" transform="matrix(0.025045487778022464,0.0,0.0,0.02508989650807833,-1.6084383395727815,-0.4769384260293279)" d="M 154.762 55.478 L 154.5 91.957 C 146.92164 75.637725 139.34262 59.318692 131.763 43 C 120.84906 43.228129 109.82212 42.371977 99 43.848 C 106.12894 60.266884 114.12867 76.297934 121.739 92.5 C 143.82598 92.675148 165.91303 92.850815 188 93.027 L 188 19 L 155.025 19 L 154.762 55.478 z M 209.037 49.25 C 202.44227 63.766298 195.4758 78.113336 189 92.683 C 200.13157 93.137669 211.28435 92.58384 222.424 92.5 C 229.98623 76.43998 238.08577 60.611168 244.972 44.25 C 239.16774 42.091306 232.22266 43.362368 225.937 43 L 211.875 43 L 209.037 49.25 z M 79.065 114.25 C 74.206289 125.7384 68.095641 136.75163 64.215 148.62 C 98.696136 210.81071 133.919 272.59655 169.25297 334.30852 C 173.13098 345.21829 176.89572 327.74081 180.59187 324.26581 C 213.83237 265.89596 247.12626 207.55146 279.823 148.876 C 274.74348 135.81529 269.17345 122.80286 262.31918 110.56784 C 259.99022 109.23152 256.30154 110.38626 253.454 110 L 80.929 110 L 79.065 114.25 z M 152.254 164 C 158.87204 175.3993 165.50813 186.78816 172.163 198.166 L 201.175 148 L 240.198 148 C 217.60769 186.54926 195.56477 225.42412 172.576 263.737 C 166.23261 256.88685 162.2205 247.93518 157.12201 240.05502 C 139.28714 209.75658 121.65054 179.34013 104.16 148.842 C 117.10888 147.47497 130.22948 148.56559 143.253 148.5 L 152.254 164 z"/></g>
  <g transform="translate(290.3,98)"><path fill="#2E5930" fill-rule="nonzero" transform="matrix(0.025045487778022464,0.0,0.0,0.02508989650807833,-1.6084383395727815,-0.4769384260293279)" d="M 154.762 55.478 L 154.5 91.957 C 146.92164 75.637725 139.34262 59.318692 131.763 43 C 120.84906 43.228129 109.82212 42.371977 99 43.848 C 106.12894 60.266884 114.12867 76.297934 121.739 92.5 C 143.82598 92.675148 165.91303 92.850815 188 93.027 L 188 19 L 155.025 19 L 154.762 55.478 z M 209.037 49.25 C 202.44227 63.766298 195.4758 78.113336 189 92.683 C 200.13157 93.137669 211.28435 92.58384 222.424 92.5 C 229.98623 76.43998 238.08577 60.611168 244.972 44.25 C 239.16774 42.091306 232.22266 43.362368 225.937 43 L 211.875 43 L 209.037 49.25 z M 79.065 114.25 C 74.206289 125.7384 68.095641 136.75163 64.215 148.62 C 98.696136 210.81071 133.919 272.59655 169.25297 334.30852 C 173.13098 345.21829 176.89572 327.74081 180.59187 324.26581 C 213.83237 265.89596 247.12626 207.55146 279.823 148.876 C 274.74348 135.81529 269.17345 122.80286 262.31918 110.56784 C 259.99022 109.23152 256.30154 110.38626 253.454 110 L 80.929 110 L 79.065 114.25 z M 152.254 164 C 158.87204 175.3993 165.50813 186.78816 172.163 198.166 L 201.175 148 L 240.198 148 C 217.60769 186.54926 195.56477 225.42412 172.576 263.737 C 166.23261 256.88685 162.2205 247.93518 157.12201 240.05502 C 139.28714 209.75658 121.65054 179.34013 104.16 148.842 C 117.10888 147.47497 130.22948 148.56559 143.253 148.5 L 152.254 164 z"/></g>

  <!-- ==================== CAROTTES rangée 2 (between sticks, 22 carrots, flipped) ==================== -->
  <!-- Centered between rangée 2 sticks, flipped pointing up, inside the V zone -->
  <g transform="rotate(180,13.5,116)"><g transform="translate(10.8,114)"><path fill="#2E5930" fill-rule="nonzero" transform="matrix(0.025045487778022464,0.0,0.0,0.02508989650807833,-1.6084383395727815,-0.4769384260293279)" d="M 154.762 55.478 L 154.5 91.957 C 146.92164 75.637725 139.34262 59.318692 131.763 43 C 120.84906 43.228129 109.82212 42.371977 99 43.848 C 106.12894 60.266884 114.12867 76.297934 121.739 92.5 C 143.82598 92.675148 165.91303 92.850815 188 93.027 L 188 19 L 155.025 19 L 154.762 55.478 z M 209.037 49.25 C 202.44227 63.766298 195.4758 78.113336 189 92.683 C 200.13157 93.137669 211.28435 92.58384 222.424 92.5 C 229.98623 76.43998 238.08577 60.611168 244.972 44.25 C 239.16774 42.091306 232.22266 43.362368 225.937 43 L 211.875 43 L 209.037 49.25 z M 79.065 114.25 C 74.206289 125.7384 68.095641 136.75163 64.215 148.62 C 98.696136 210.81071 133.919 272.59655 169.25297 334.30852 C 173.13098 345.21829 176.89572 327.74081 180.59187 324.26581 C 213.83237 265.89596 247.12626 207.55146 279.823 148.876 C 274.74348 135.81529 269.17345 122.80286 262.31918 110.56784 C 259.99022 109.23152 256.30154 110.38626 253.454 110 L 80.929 110 L 79.065 114.25 z M 152.254 164 C 158.87204 175.3993 165.50813 186.78816 172.163 198.166 L 201.175 148 L 240.198 148 C 217.60769 186.54926 195.56477 225.42412 172.576 263.737 C 166.23261 256.88685 162.2205 247.93518 157.12201 240.05502 C 139.28714 209.75658 121.65054 179.34013 104.16 148.842 C 117.10888 147.47497 130.22948 148.56559 143.253 148.5 L 152.254 164 z"/></g></g>
  <g transform="rotate(180,26.5,116)"><g transform="translate(23.8,114)"><path fill="#2E5930" fill-rule="nonzero" transform="matrix(0.025045487778022464,0.0,0.0,0.02508989650807833,-1.6084383395727815,-0.4769384260293279)" d="M 154.762 55.478 L 154.5 91.957 C 146.92164 75.637725 139.34262 59.318692 131.763 43 C 120.84906 43.228129 109.82212 42.371977 99 43.848 C 106.12894 60.266884 114.12867 76.297934 121.739 92.5 C 143.82598 92.675148 165.91303 92.850815 188 93.027 L 188 19 L 155.025 19 L 154.762 55.478 z M 209.037 49.25 C 202.44227 63.766298 195.4758 78.113336 189 92.683 C 200.13157 93.137669 211.28435 92.58384 222.424 92.5 C 229.98623 76.43998 238.08577 60.611168 244.972 44.25 C 239.16774 42.091306 232.22266 43.362368 225.937 43 L 211.875 43 L 209.037 49.25 z M 79.065 114.25 C 74.206289 125.7384 68.095641 136.75163 64.215 148.62 C 98.696136 210.81071 133.919 272.59655 169.25297 334.30852 C 173.13098 345.21829 176.89572 327.74081 180.59187 324.26581 C 213.83237 265.89596 247.12626 207.55146 279.823 148.876 C 274.74348 135.81529 269.17345 122.80286 262.31918 110.56784 C 259.99022 109.23152 256.30154 110.38626 253.454 110 L 80.929 110 L 79.065 114.25 z M 152.254 164 C 158.87204 175.3993 165.50813 186.78816 172.163 198.166 L 201.175 148 L 240.198 148 C 217.60769 186.54926 195.56477 225.42412 172.576 263.737 C 166.23261 256.88685 162.2205 247.93518 157.12201 240.05502 C 139.28714 209.75658 121.65054 179.34013 104.16 148.842 C 117.10888 147.47497 130.22948 148.56559 143.253 148.5 L 152.254 164 z"/></g></g>
  <g transform="rotate(180,39.5,116)"><g transform="translate(36.8,114)"><path fill="#2E5930" fill-rule="nonzero" transform="matrix(0.025045487778022464,0.0,0.0,0.02508989650807833,-1.6084383395727815,-0.4769384260293279)" d="M 154.762 55.478 L 154.5 91.957 C 146.92164 75.637725 139.34262 59.318692 131.763 43 C 120.84906 43.228129 109.82212 42.371977 99 43.848 C 106.12894 60.266884 114.12867 76.297934 121.739 92.5 C 143.82598 92.675148 165.91303 92.850815 188 93.027 L 188 19 L 155.025 19 L 154.762 55.478 z M 209.037 49.25 C 202.44227 63.766298 195.4758 78.113336 189 92.683 C 200.13157 93.137669 211.28435 92.58384 222.424 92.5 C 229.98623 76.43998 238.08577 60.611168 244.972 44.25 C 239.16774 42.091306 232.22266 43.362368 225.937 43 L 211.875 43 L 209.037 49.25 z M 79.065 114.25 C 74.206289 125.7384 68.095641 136.75163 64.215 148.62 C 98.696136 210.81071 133.919 272.59655 169.25297 334.30852 C 173.13098 345.21829 176.89572 327.74081 180.59187 324.26581 C 213.83237 265.89596 247.12626 207.55146 279.823 148.876 C 274.74348 135.81529 269.17345 122.80286 262.31918 110.56784 C 259.99022 109.23152 256.30154 110.38626 253.454 110 L 80.929 110 L 79.065 114.25 z M 152.254 164 C 158.87204 175.3993 165.50813 186.78816 172.163 198.166 L 201.175 148 L 240.198 148 C 217.60769 186.54926 195.56477 225.42412 172.576 263.737 C 166.23261 256.88685 162.2205 247.93518 157.12201 240.05502 C 139.28714 209.75658 121.65054 179.34013 104.16 148.842 C 117.10888 147.47497 130.22948 148.56559 143.253 148.5 L 152.254 164 z"/></g></g>
  <g transform="rotate(180,52.5,116)"><g transform="translate(49.8,114)"><path fill="#2E5930" fill-rule="nonzero" transform="matrix(0.025045487778022464,0.0,0.0,0.02508989650807833,-1.6084383395727815,-0.4769384260293279)" d="M 154.762 55.478 L 154.5 91.957 C 146.92164 75.637725 139.34262 59.318692 131.763 43 C 120.84906 43.228129 109.82212 42.371977 99 43.848 C 106.12894 60.266884 114.12867 76.297934 121.739 92.5 C 143.82598 92.675148 165.91303 92.850815 188 93.027 L 188 19 L 155.025 19 L 154.762 55.478 z M 209.037 49.25 C 202.44227 63.766298 195.4758 78.113336 189 92.683 C 200.13157 93.137669 211.28435 92.58384 222.424 92.5 C 229.98623 76.43998 238.08577 60.611168 244.972 44.25 C 239.16774 42.091306 232.22266 43.362368 225.937 43 L 211.875 43 L 209.037 49.25 z M 79.065 114.25 C 74.206289 125.7384 68.095641 136.75163 64.215 148.62 C 98.696136 210.81071 133.919 272.59655 169.25297 334.30852 C 173.13098 345.21829 176.89572 327.74081 180.59187 324.26581 C 213.83237 265.89596 247.12626 207.55146 279.823 148.876 C 274.74348 135.81529 269.17345 122.80286 262.31918 110.56784 C 259.99022 109.23152 256.30154 110.38626 253.454 110 L 80.929 110 L 79.065 114.25 z M 152.254 164 C 158.87204 175.3993 165.50813 186.78816 172.163 198.166 L 201.175 148 L 240.198 148 C 217.60769 186.54926 195.56477 225.42412 172.576 263.737 C 166.23261 256.88685 162.2205 247.93518 157.12201 240.05502 C 139.28714 209.75658 121.65054 179.34013 104.16 148.842 C 117.10888 147.47497 130.22948 148.56559 143.253 148.5 L 152.254 164 z"/></g></g>
  <g transform="rotate(180,65.5,116)"><g transform="translate(62.8,114)"><path fill="#2E5930" fill-rule="nonzero" transform="matrix(0.025045487778022464,0.0,0.0,0.02508989650807833,-1.6084383395727815,-0.4769384260293279)" d="M 154.762 55.478 L 154.5 91.957 C 146.92164 75.637725 139.34262 59.318692 131.763 43 C 120.84906 43.228129 109.82212 42.371977 99 43.848 C 106.12894 60.266884 114.12867 76.297934 121.739 92.5 C 143.82598 92.675148 165.91303 92.850815 188 93.027 L 188 19 L 155.025 19 L 154.762 55.478 z M 209.037 49.25 C 202.44227 63.766298 195.4758 78.113336 189 92.683 C 200.13157 93.137669 211.28435 92.58384 222.424 92.5 C 229.98623 76.43998 238.08577 60.611168 244.972 44.25 C 239.16774 42.091306 232.22266 43.362368 225.937 43 L 211.875 43 L 209.037 49.25 z M 79.065 114.25 C 74.206289 125.7384 68.095641 136.75163 64.215 148.62 C 98.696136 210.81071 133.919 272.59655 169.25297 334.30852 C 173.13098 345.21829 176.89572 327.74081 180.59187 324.26581 C 213.83237 265.89596 247.12626 207.55146 279.823 148.876 C 274.74348 135.81529 269.17345 122.80286 262.31918 110.56784 C 259.99022 109.23152 256.30154 110.38626 253.454 110 L 80.929 110 L 79.065 114.25 z M 152.254 164 C 158.87204 175.3993 165.50813 186.78816 172.163 198.166 L 201.175 148 L 240.198 148 C 217.60769 186.54926 195.56477 225.42412 172.576 263.737 C 166.23261 256.88685 162.2205 247.93518 157.12201 240.05502 C 139.28714 209.75658 121.65054 179.34013 104.16 148.842 C 117.10888 147.47497 130.22948 148.56559 143.253 148.5 L 152.254 164 z"/></g></g>
  <g transform="rotate(180,78.5,116)"><g transform="translate(75.8,114)"><path fill="#2E5930" fill-rule="nonzero" transform="matrix(0.025045487778022464,0.0,0.0,0.02508989650807833,-1.6084383395727815,-0.4769384260293279)" d="M 154.762 55.478 L 154.5 91.957 C 146.92164 75.637725 139.34262 59.318692 131.763 43 C 120.84906 43.228129 109.82212 42.371977 99 43.848 C 106.12894 60.266884 114.12867 76.297934 121.739 92.5 C 143.82598 92.675148 165.91303 92.850815 188 93.027 L 188 19 L 155.025 19 L 154.762 55.478 z M 209.037 49.25 C 202.44227 63.766298 195.4758 78.113336 189 92.683 C 200.13157 93.137669 211.28435 92.58384 222.424 92.5 C 229.98623 76.43998 238.08577 60.611168 244.972 44.25 C 239.16774 42.091306 232.22266 43.362368 225.937 43 L 211.875 43 L 209.037 49.25 z M 79.065 114.25 C 74.206289 125.7384 68.095641 136.75163 64.215 148.62 C 98.696136 210.81071 133.919 272.59655 169.25297 334.30852 C 173.13098 345.21829 176.89572 327.74081 180.59187 324.26581 C 213.83237 265.89596 247.12626 207.55146 279.823 148.876 C 274.74348 135.81529 269.17345 122.80286 262.31918 110.56784 C 259.99022 109.23152 256.30154 110.38626 253.454 110 L 80.929 110 L 79.065 114.25 z M 152.254 164 C 158.87204 175.3993 165.50813 186.78816 172.163 198.166 L 201.175 148 L 240.198 148 C 217.60769 186.54926 195.56477 225.42412 172.576 263.737 C 166.23261 256.88685 162.2205 247.93518 157.12201 240.05502 C 139.28714 209.75658 121.65054 179.34013 104.16 148.842 C 117.10888 147.47497 130.22948 148.56559 143.253 148.5 L 152.254 164 z"/></g></g>
  <g transform="rotate(180,91.5,116)"><g transform="translate(88.8,114)"><path fill="#2E5930" fill-rule="nonzero" transform="matrix(0.025045487778022464,0.0,0.0,0.02508989650807833,-1.6084383395727815,-0.4769384260293279)" d="M 154.762 55.478 L 154.5 91.957 C 146.92164 75.637725 139.34262 59.318692 131.763 43 C 120.84906 43.228129 109.82212 42.371977 99 43.848 C 106.12894 60.266884 114.12867 76.297934 121.739 92.5 C 143.82598 92.675148 165.91303 92.850815 188 93.027 L 188 19 L 155.025 19 L 154.762 55.478 z M 209.037 49.25 C 202.44227 63.766298 195.4758 78.113336 189 92.683 C 200.13157 93.137669 211.28435 92.58384 222.424 92.5 C 229.98623 76.43998 238.08577 60.611168 244.972 44.25 C 239.16774 42.091306 232.22266 43.362368 225.937 43 L 211.875 43 L 209.037 49.25 z M 79.065 114.25 C 74.206289 125.7384 68.095641 136.75163 64.215 148.62 C 98.696136 210.81071 133.919 272.59655 169.25297 334.30852 C 173.13098 345.21829 176.89572 327.74081 180.59187 324.26581 C 213.83237 265.89596 247.12626 207.55146 279.823 148.876 C 274.74348 135.81529 269.17345 122.80286 262.31918 110.56784 C 259.99022 109.23152 256.30154 110.38626 253.454 110 L 80.929 110 L 79.065 114.25 z M 152.254 164 C 158.87204 175.3993 165.50813 186.78816 172.163 198.166 L 201.175 148 L 240.198 148 C 217.60769 186.54926 195.56477 225.42412 172.576 263.737 C 166.23261 256.88685 162.2205 247.93518 157.12201 240.05502 C 139.28714 209.75658 121.65054 179.34013 104.16 148.842 C 117.10888 147.47497 130.22948 148.56559 143.253 148.5 L 152.254 164 z"/></g></g>
  <g transform="rotate(180,104.5,116)"><g transform="translate(101.8,114)"><path fill="#2E5930" fill-rule="nonzero" transform="matrix(0.025045487778022464,0.0,0.0,0.02508989650807833,-1.6084383395727815,-0.4769384260293279)" d="M 154.762 55.478 L 154.5 91.957 C 146.92164 75.637725 139.34262 59.318692 131.763 43 C 120.84906 43.228129 109.82212 42.371977 99 43.848 C 106.12894 60.266884 114.12867 76.297934 121.739 92.5 C 143.82598 92.675148 165.91303 92.850815 188 93.027 L 188 19 L 155.025 19 L 154.762 55.478 z M 209.037 49.25 C 202.44227 63.766298 195.4758 78.113336 189 92.683 C 200.13157 93.137669 211.28435 92.58384 222.424 92.5 C 229.98623 76.43998 238.08577 60.611168 244.972 44.25 C 239.16774 42.091306 232.22266 43.362368 225.937 43 L 211.875 43 L 209.037 49.25 z M 79.065 114.25 C 74.206289 125.7384 68.095641 136.75163 64.215 148.62 C 98.696136 210.81071 133.919 272.59655 169.25297 334.30852 C 173.13098 345.21829 176.89572 327.74081 180.59187 324.26581 C 213.83237 265.89596 247.12626 207.55146 279.823 148.876 C 274.74348 135.81529 269.17345 122.80286 262.31918 110.56784 C 259.99022 109.23152 256.30154 110.38626 253.454 110 L 80.929 110 L 79.065 114.25 z M 152.254 164 C 158.87204 175.3993 165.50813 186.78816 172.163 198.166 L 201.175 148 L 240.198 148 C 217.60769 186.54926 195.56477 225.42412 172.576 263.737 C 166.23261 256.88685 162.2205 247.93518 157.12201 240.05502 C 139.28714 209.75658 121.65054 179.34013 104.16 148.842 C 117.10888 147.47497 130.22948 148.56559 143.253 148.5 L 152.254 164 z"/></g></g>
  <g transform="rotate(180,117.5,116)"><g transform="translate(114.8,114)"><path fill="#2E5930" fill-rule="nonzero" transform="matrix(0.025045487778022464,0.0,0.0,0.02508989650807833,-1.6084383395727815,-0.4769384260293279)" d="M 154.762 55.478 L 154.5 91.957 C 146.92164 75.637725 139.34262 59.318692 131.763 43 C 120.84906 43.228129 109.82212 42.371977 99 43.848 C 106.12894 60.266884 114.12867 76.297934 121.739 92.5 C 143.82598 92.675148 165.91303 92.850815 188 93.027 L 188 19 L 155.025 19 L 154.762 55.478 z M 209.037 49.25 C 202.44227 63.766298 195.4758 78.113336 189 92.683 C 200.13157 93.137669 211.28435 92.58384 222.424 92.5 C 229.98623 76.43998 238.08577 60.611168 244.972 44.25 C 239.16774 42.091306 232.22266 43.362368 225.937 43 L 211.875 43 L 209.037 49.25 z M 79.065 114.25 C 74.206289 125.7384 68.095641 136.75163 64.215 148.62 C 98.696136 210.81071 133.919 272.59655 169.25297 334.30852 C 173.13098 345.21829 176.89572 327.74081 180.59187 324.26581 C 213.83237 265.89596 247.12626 207.55146 279.823 148.876 C 274.74348 135.81529 269.17345 122.80286 262.31918 110.56784 C 259.99022 109.23152 256.30154 110.38626 253.454 110 L 80.929 110 L 79.065 114.25 z M 152.254 164 C 158.87204 175.3993 165.50813 186.78816 172.163 198.166 L 201.175 148 L 240.198 148 C 217.60769 186.54926 195.56477 225.42412 172.576 263.737 C 166.23261 256.88685 162.2205 247.93518 157.12201 240.05502 C 139.28714 209.75658 121.65054 179.34013 104.16 148.842 C 117.10888 147.47497 130.22948 148.56559 143.253 148.5 L 152.254 164 z"/></g></g>
  <g transform="rotate(180,130.5,116)"><g transform="translate(127.8,114)"><path fill="#2E5930" fill-rule="nonzero" transform="matrix(0.025045487778022464,0.0,0.0,0.02508989650807833,-1.6084383395727815,-0.4769384260293279)" d="M 154.762 55.478 L 154.5 91.957 C 146.92164 75.637725 139.34262 59.318692 131.763 43 C 120.84906 43.228129 109.82212 42.371977 99 43.848 C 106.12894 60.266884 114.12867 76.297934 121.739 92.5 C 143.82598 92.675148 165.91303 92.850815 188 93.027 L 188 19 L 155.025 19 L 154.762 55.478 z M 209.037 49.25 C 202.44227 63.766298 195.4758 78.113336 189 92.683 C 200.13157 93.137669 211.28435 92.58384 222.424 92.5 C 229.98623 76.43998 238.08577 60.611168 244.972 44.25 C 239.16774 42.091306 232.22266 43.362368 225.937 43 L 211.875 43 L 209.037 49.25 z M 79.065 114.25 C 74.206289 125.7384 68.095641 136.75163 64.215 148.62 C 98.696136 210.81071 133.919 272.59655 169.25297 334.30852 C 173.13098 345.21829 176.89572 327.74081 180.59187 324.26581 C 213.83237 265.89596 247.12626 207.55146 279.823 148.876 C 274.74348 135.81529 269.17345 122.80286 262.31918 110.56784 C 259.99022 109.23152 256.30154 110.38626 253.454 110 L 80.929 110 L 79.065 114.25 z M 152.254 164 C 158.87204 175.3993 165.50813 186.78816 172.163 198.166 L 201.175 148 L 240.198 148 C 217.60769 186.54926 195.56477 225.42412 172.576 263.737 C 166.23261 256.88685 162.2205 247.93518 157.12201 240.05502 C 139.28714 209.75658 121.65054 179.34013 104.16 148.842 C 117.10888 147.47497 130.22948 148.56559 143.253 148.5 L 152.254 164 z"/></g></g>
  <g transform="rotate(180,143.5,116)"><g transform="translate(140.8,114)"><path fill="#2E5930" fill-rule="nonzero" transform="matrix(0.025045487778022464,0.0,0.0,0.02508989650807833,-1.6084383395727815,-0.4769384260293279)" d="M 154.762 55.478 L 154.5 91.957 C 146.92164 75.637725 139.34262 59.318692 131.763 43 C 120.84906 43.228129 109.82212 42.371977 99 43.848 C 106.12894 60.266884 114.12867 76.297934 121.739 92.5 C 143.82598 92.675148 165.91303 92.850815 188 93.027 L 188 19 L 155.025 19 L 154.762 55.478 z M 209.037 49.25 C 202.44227 63.766298 195.4758 78.113336 189 92.683 C 200.13157 93.137669 211.28435 92.58384 222.424 92.5 C 229.98623 76.43998 238.08577 60.611168 244.972 44.25 C 239.16774 42.091306 232.22266 43.362368 225.937 43 L 211.875 43 L 209.037 49.25 z M 79.065 114.25 C 74.206289 125.7384 68.095641 136.75163 64.215 148.62 C 98.696136 210.81071 133.919 272.59655 169.25297 334.30852 C 173.13098 345.21829 176.89572 327.74081 180.59187 324.26581 C 213.83237 265.89596 247.12626 207.55146 279.823 148.876 C 274.74348 135.81529 269.17345 122.80286 262.31918 110.56784 C 259.99022 109.23152 256.30154 110.38626 253.454 110 L 80.929 110 L 79.065 114.25 z M 152.254 164 C 158.87204 175.3993 165.50813 186.78816 172.163 198.166 L 201.175 148 L 240.198 148 C 217.60769 186.54926 195.56477 225.42412 172.576 263.737 C 166.23261 256.88685 162.2205 247.93518 157.12201 240.05502 C 139.28714 209.75658 121.65054 179.34013 104.16 148.842 C 117.10888 147.47497 130.22948 148.56559 143.253 148.5 L 152.254 164 z"/></g></g>
  <g transform="rotate(180,156.5,116)"><g transform="translate(153.8,114)"><path fill="#2E5930" fill-rule="nonzero" transform="matrix(0.025045487778022464,0.0,0.0,0.02508989650807833,-1.6084383395727815,-0.4769384260293279)" d="M 154.762 55.478 L 154.5 91.957 C 146.92164 75.637725 139.34262 59.318692 131.763 43 C 120.84906 43.228129 109.82212 42.371977 99 43.848 C 106.12894 60.266884 114.12867 76.297934 121.739 92.5 C 143.82598 92.675148 165.91303 92.850815 188 93.027 L 188 19 L 155.025 19 L 154.762 55.478 z M 209.037 49.25 C 202.44227 63.766298 195.4758 78.113336 189 92.683 C 200.13157 93.137669 211.28435 92.58384 222.424 92.5 C 229.98623 76.43998 238.08577 60.611168 244.972 44.25 C 239.16774 42.091306 232.22266 43.362368 225.937 43 L 211.875 43 L 209.037 49.25 z M 79.065 114.25 C 74.206289 125.7384 68.095641 136.75163 64.215 148.62 C 98.696136 210.81071 133.919 272.59655 169.25297 334.30852 C 173.13098 345.21829 176.89572 327.74081 180.59187 324.26581 C 213.83237 265.89596 247.12626 207.55146 279.823 148.876 C 274.74348 135.81529 269.17345 122.80286 262.31918 110.56784 C 259.99022 109.23152 256.30154 110.38626 253.454 110 L 80.929 110 L 79.065 114.25 z M 152.254 164 C 158.87204 175.3993 165.50813 186.78816 172.163 198.166 L 201.175 148 L 240.198 148 C 217.60769 186.54926 195.56477 225.42412 172.576 263.737 C 166.23261 256.88685 162.2205 247.93518 157.12201 240.05502 C 139.28714 209.75658 121.65054 179.34013 104.16 148.842 C 117.10888 147.47497 130.22948 148.56559 143.253 148.5 L 152.254 164 z"/></g></g>
  <g transform="rotate(180,169.5,116)"><g transform="translate(166.8,114)"><path fill="#2E5930" fill-rule="nonzero" transform="matrix(0.025045487778022464,0.0,0.0,0.02508989650807833,-1.6084383395727815,-0.4769384260293279)" d="M 154.762 55.478 L 154.5 91.957 C 146.92164 75.637725 139.34262 59.318692 131.763 43 C 120.84906 43.228129 109.82212 42.371977 99 43.848 C 106.12894 60.266884 114.12867 76.297934 121.739 92.5 C 143.82598 92.675148 165.91303 92.850815 188 93.027 L 188 19 L 155.025 19 L 154.762 55.478 z M 209.037 49.25 C 202.44227 63.766298 195.4758 78.113336 189 92.683 C 200.13157 93.137669 211.28435 92.58384 222.424 92.5 C 229.98623 76.43998 238.08577 60.611168 244.972 44.25 C 239.16774 42.091306 232.22266 43.362368 225.937 43 L 211.875 43 L 209.037 49.25 z M 79.065 114.25 C 74.206289 125.7384 68.095641 136.75163 64.215 148.62 C 98.696136 210.81071 133.919 272.59655 169.25297 334.30852 C 173.13098 345.21829 176.89572 327.74081 180.59187 324.26581 C 213.83237 265.89596 247.12626 207.55146 279.823 148.876 C 274.74348 135.81529 269.17345 122.80286 262.31918 110.56784 C 259.99022 109.23152 256.30154 110.38626 253.454 110 L 80.929 110 L 79.065 114.25 z M 152.254 164 C 158.87204 175.3993 165.50813 186.78816 172.163 198.166 L 201.175 148 L 240.198 148 C 217.60769 186.54926 195.56477 225.42412 172.576 263.737 C 166.23261 256.88685 162.2205 247.93518 157.12201 240.05502 C 139.28714 209.75658 121.65054 179.34013 104.16 148.842 C 117.10888 147.47497 130.22948 148.56559 143.253 148.5 L 152.254 164 z"/></g></g>
  <g transform="rotate(180,182.5,116)"><g transform="translate(179.8,114)"><path fill="#2E5930" fill-rule="nonzero" transform="matrix(0.025045487778022464,0.0,0.0,0.02508989650807833,-1.6084383395727815,-0.4769384260293279)" d="M 154.762 55.478 L 154.5 91.957 C 146.92164 75.637725 139.34262 59.318692 131.763 43 C 120.84906 43.228129 109.82212 42.371977 99 43.848 C 106.12894 60.266884 114.12867 76.297934 121.739 92.5 C 143.82598 92.675148 165.91303 92.850815 188 93.027 L 188 19 L 155.025 19 L 154.762 55.478 z M 209.037 49.25 C 202.44227 63.766298 195.4758 78.113336 189 92.683 C 200.13157 93.137669 211.28435 92.58384 222.424 92.5 C 229.98623 76.43998 238.08577 60.611168 244.972 44.25 C 239.16774 42.091306 232.22266 43.362368 225.937 43 L 211.875 43 L 209.037 49.25 z M 79.065 114.25 C 74.206289 125.7384 68.095641 136.75163 64.215 148.62 C 98.696136 210.81071 133.919 272.59655 169.25297 334.30852 C 173.13098 345.21829 176.89572 327.74081 180.59187 324.26581 C 213.83237 265.89596 247.12626 207.55146 279.823 148.876 C 274.74348 135.81529 269.17345 122.80286 262.31918 110.56784 C 259.99022 109.23152 256.30154 110.38626 253.454 110 L 80.929 110 L 79.065 114.25 z M 152.254 164 C 158.87204 175.3993 165.50813 186.78816 172.163 198.166 L 201.175 148 L 240.198 148 C 217.60769 186.54926 195.56477 225.42412 172.576 263.737 C 166.23261 256.88685 162.2205 247.93518 157.12201 240.05502 C 139.28714 209.75658 121.65054 179.34013 104.16 148.842 C 117.10888 147.47497 130.22948 148.56559 143.253 148.5 L 152.254 164 z"/></g></g>
  <g transform="rotate(180,195.5,116)"><g transform="translate(192.8,114)"><path fill="#2E5930" fill-rule="nonzero" transform="matrix(0.025045487778022464,0.0,0.0,0.02508989650807833,-1.6084383395727815,-0.4769384260293279)" d="M 154.762 55.478 L 154.5 91.957 C 146.92164 75.637725 139.34262 59.318692 131.763 43 C 120.84906 43.228129 109.82212 42.371977 99 43.848 C 106.12894 60.266884 114.12867 76.297934 121.739 92.5 C 143.82598 92.675148 165.91303 92.850815 188 93.027 L 188 19 L 155.025 19 L 154.762 55.478 z M 209.037 49.25 C 202.44227 63.766298 195.4758 78.113336 189 92.683 C 200.13157 93.137669 211.28435 92.58384 222.424 92.5 C 229.98623 76.43998 238.08577 60.611168 244.972 44.25 C 239.16774 42.091306 232.22266 43.362368 225.937 43 L 211.875 43 L 209.037 49.25 z M 79.065 114.25 C 74.206289 125.7384 68.095641 136.75163 64.215 148.62 C 98.696136 210.81071 133.919 272.59655 169.25297 334.30852 C 173.13098 345.21829 176.89572 327.74081 180.59187 324.26581 C 213.83237 265.89596 247.12626 207.55146 279.823 148.876 C 274.74348 135.81529 269.17345 122.80286 262.31918 110.56784 C 259.99022 109.23152 256.30154 110.38626 253.454 110 L 80.929 110 L 79.065 114.25 z M 152.254 164 C 158.87204 175.3993 165.50813 186.78816 172.163 198.166 L 201.175 148 L 240.198 148 C 217.60769 186.54926 195.56477 225.42412 172.576 263.737 C 166.23261 256.88685 162.2205 247.93518 157.12201 240.05502 C 139.28714 209.75658 121.65054 179.34013 104.16 148.842 C 117.10888 147.47497 130.22948 148.56559 143.253 148.5 L 152.254 164 z"/></g></g>
  <g transform="rotate(180,208.5,116)"><g transform="translate(205.8,114)"><path fill="#2E5930" fill-rule="nonzero" transform="matrix(0.025045487778022464,0.0,0.0,0.02508989650807833,-1.6084383395727815,-0.4769384260293279)" d="M 154.762 55.478 L 154.5 91.957 C 146.92164 75.637725 139.34262 59.318692 131.763 43 C 120.84906 43.228129 109.82212 42.371977 99 43.848 C 106.12894 60.266884 114.12867 76.297934 121.739 92.5 C 143.82598 92.675148 165.91303 92.850815 188 93.027 L 188 19 L 155.025 19 L 154.762 55.478 z M 209.037 49.25 C 202.44227 63.766298 195.4758 78.113336 189 92.683 C 200.13157 93.137669 211.28435 92.58384 222.424 92.5 C 229.98623 76.43998 238.08577 60.611168 244.972 44.25 C 239.16774 42.091306 232.22266 43.362368 225.937 43 L 211.875 43 L 209.037 49.25 z M 79.065 114.25 C 74.206289 125.7384 68.095641 136.75163 64.215 148.62 C 98.696136 210.81071 133.919 272.59655 169.25297 334.30852 C 173.13098 345.21829 176.89572 327.74081 180.59187 324.26581 C 213.83237 265.89596 247.12626 207.55146 279.823 148.876 C 274.74348 135.81529 269.17345 122.80286 262.31918 110.56784 C 259.99022 109.23152 256.30154 110.38626 253.454 110 L 80.929 110 L 79.065 114.25 z M 152.254 164 C 158.87204 175.3993 165.50813 186.78816 172.163 198.166 L 201.175 148 L 240.198 148 C 217.60769 186.54926 195.56477 225.42412 172.576 263.737 C 166.23261 256.88685 162.2205 247.93518 157.12201 240.05502 C 139.28714 209.75658 121.65054 179.34013 104.16 148.842 C 117.10888 147.47497 130.22948 148.56559 143.253 148.5 L 152.254 164 z"/></g></g>
  <g transform="rotate(180,221.5,116)"><g transform="translate(218.8,114)"><path fill="#2E5930" fill-rule="nonzero" transform="matrix(0.025045487778022464,0.0,0.0,0.02508989650807833,-1.6084383395727815,-0.4769384260293279)" d="M 154.762 55.478 L 154.5 91.957 C 146.92164 75.637725 139.34262 59.318692 131.763 43 C 120.84906 43.228129 109.82212 42.371977 99 43.848 C 106.12894 60.266884 114.12867 76.297934 121.739 92.5 C 143.82598 92.675148 165.91303 92.850815 188 93.027 L 188 19 L 155.025 19 L 154.762 55.478 z M 209.037 49.25 C 202.44227 63.766298 195.4758 78.113336 189 92.683 C 200.13157 93.137669 211.28435 92.58384 222.424 92.5 C 229.98623 76.43998 238.08577 60.611168 244.972 44.25 C 239.16774 42.091306 232.22266 43.362368 225.937 43 L 211.875 43 L 209.037 49.25 z M 79.065 114.25 C 74.206289 125.7384 68.095641 136.75163 64.215 148.62 C 98.696136 210.81071 133.919 272.59655 169.25297 334.30852 C 173.13098 345.21829 176.89572 327.74081 180.59187 324.26581 C 213.83237 265.89596 247.12626 207.55146 279.823 148.876 C 274.74348 135.81529 269.17345 122.80286 262.31918 110.56784 C 259.99022 109.23152 256.30154 110.38626 253.454 110 L 80.929 110 L 79.065 114.25 z M 152.254 164 C 158.87204 175.3993 165.50813 186.78816 172.163 198.166 L 201.175 148 L 240.198 148 C 217.60769 186.54926 195.56477 225.42412 172.576 263.737 C 166.23261 256.88685 162.2205 247.93518 157.12201 240.05502 C 139.28714 209.75658 121.65054 179.34013 104.16 148.842 C 117.10888 147.47497 130.22948 148.56559 143.253 148.5 L 152.254 164 z"/></g></g>
  <g transform="rotate(180,234.5,116)"><g transform="translate(231.8,114)"><path fill="#2E5930" fill-rule="nonzero" transform="matrix(0.025045487778022464,0.0,0.0,0.02508989650807833,-1.6084383395727815,-0.4769384260293279)" d="M 154.762 55.478 L 154.5 91.957 C 146.92164 75.637725 139.34262 59.318692 131.763 43 C 120.84906 43.228129 109.82212 42.371977 99 43.848 C 106.12894 60.266884 114.12867 76.297934 121.739 92.5 C 143.82598 92.675148 165.91303 92.850815 188 93.027 L 188 19 L 155.025 19 L 154.762 55.478 z M 209.037 49.25 C 202.44227 63.766298 195.4758 78.113336 189 92.683 C 200.13157 93.137669 211.28435 92.58384 222.424 92.5 C 229.98623 76.43998 238.08577 60.611168 244.972 44.25 C 239.16774 42.091306 232.22266 43.362368 225.937 43 L 211.875 43 L 209.037 49.25 z M 79.065 114.25 C 74.206289 125.7384 68.095641 136.75163 64.215 148.62 C 98.696136 210.81071 133.919 272.59655 169.25297 334.30852 C 173.13098 345.21829 176.89572 327.74081 180.59187 324.26581 C 213.83237 265.89596 247.12626 207.55146 279.823 148.876 C 274.74348 135.81529 269.17345 122.80286 262.31918 110.56784 C 259.99022 109.23152 256.30154 110.38626 253.454 110 L 80.929 110 L 79.065 114.25 z M 152.254 164 C 158.87204 175.3993 165.50813 186.78816 172.163 198.166 L 201.175 148 L 240.198 148 C 217.60769 186.54926 195.56477 225.42412 172.576 263.737 C 166.23261 256.88685 162.2205 247.93518 157.12201 240.05502 C 139.28714 209.75658 121.65054 179.34013 104.16 148.842 C 117.10888 147.47497 130.22948 148.56559 143.253 148.5 L 152.254 164 z"/></g></g>
  <g transform="rotate(180,247.5,116)"><g transform="translate(244.8,114)"><path fill="#2E5930" fill-rule="nonzero" transform="matrix(0.025045487778022464,0.0,0.0,0.02508989650807833,-1.6084383395727815,-0.4769384260293279)" d="M 154.762 55.478 L 154.5 91.957 C 146.92164 75.637725 139.34262 59.318692 131.763 43 C 120.84906 43.228129 109.82212 42.371977 99 43.848 C 106.12894 60.266884 114.12867 76.297934 121.739 92.5 C 143.82598 92.675148 165.91303 92.850815 188 93.027 L 188 19 L 155.025 19 L 154.762 55.478 z M 209.037 49.25 C 202.44227 63.766298 195.4758 78.113336 189 92.683 C 200.13157 93.137669 211.28435 92.58384 222.424 92.5 C 229.98623 76.43998 238.08577 60.611168 244.972 44.25 C 239.16774 42.091306 232.22266 43.362368 225.937 43 L 211.875 43 L 209.037 49.25 z M 79.065 114.25 C 74.206289 125.7384 68.095641 136.75163 64.215 148.62 C 98.696136 210.81071 133.919 272.59655 169.25297 334.30852 C 173.13098 345.21829 176.89572 327.74081 180.59187 324.26581 C 213.83237 265.89596 247.12626 207.55146 279.823 148.876 C 274.74348 135.81529 269.17345 122.80286 262.31918 110.56784 C 259.99022 109.23152 256.30154 110.38626 253.454 110 L 80.929 110 L 79.065 114.25 z M 152.254 164 C 158.87204 175.3993 165.50813 186.78816 172.163 198.166 L 201.175 148 L 240.198 148 C 217.60769 186.54926 195.56477 225.42412 172.576 263.737 C 166.23261 256.88685 162.2205 247.93518 157.12201 240.05502 C 139.28714 209.75658 121.65054 179.34013 104.16 148.842 C 117.10888 147.47497 130.22948 148.56559 143.253 148.5 L 152.254 164 z"/></g></g>
  <g transform="rotate(180,260.5,116)"><g transform="translate(257.8,114)"><path fill="#2E5930" fill-rule="nonzero" transform="matrix(0.025045487778022464,0.0,0.0,0.02508989650807833,-1.6084383395727815,-0.4769384260293279)" d="M 154.762 55.478 L 154.5 91.957 C 146.92164 75.637725 139.34262 59.318692 131.763 43 C 120.84906 43.228129 109.82212 42.371977 99 43.848 C 106.12894 60.266884 114.12867 76.297934 121.739 92.5 C 143.82598 92.675148 165.91303 92.850815 188 93.027 L 188 19 L 155.025 19 L 154.762 55.478 z M 209.037 49.25 C 202.44227 63.766298 195.4758 78.113336 189 92.683 C 200.13157 93.137669 211.28435 92.58384 222.424 92.5 C 229.98623 76.43998 238.08577 60.611168 244.972 44.25 C 239.16774 42.091306 232.22266 43.362368 225.937 43 L 211.875 43 L 209.037 49.25 z M 79.065 114.25 C 74.206289 125.7384 68.095641 136.75163 64.215 148.62 C 98.696136 210.81071 133.919 272.59655 169.25297 334.30852 C 173.13098 345.21829 176.89572 327.74081 180.59187 324.26581 C 213.83237 265.89596 247.12626 207.55146 279.823 148.876 C 274.74348 135.81529 269.17345 122.80286 262.31918 110.56784 C 259.99022 109.23152 256.30154 110.38626 253.454 110 L 80.929 110 L 79.065 114.25 z M 152.254 164 C 158.87204 175.3993 165.50813 186.78816 172.163 198.166 L 201.175 148 L 240.198 148 C 217.60769 186.54926 195.56477 225.42412 172.576 263.737 C 166.23261 256.88685 162.2205 247.93518 157.12201 240.05502 C 139.28714 209.75658 121.65054 179.34013 104.16 148.842 C 117.10888 147.47497 130.22948 148.56559 143.253 148.5 L 152.254 164 z"/></g></g>
  <g transform="rotate(180,273.5,116)"><g transform="translate(270.8,114)"><path fill="#2E5930" fill-rule="nonzero" transform="matrix(0.025045487778022464,0.0,0.0,0.02508989650807833,-1.6084383395727815,-0.4769384260293279)" d="M 154.762 55.478 L 154.5 91.957 C 146.92164 75.637725 139.34262 59.318692 131.763 43 C 120.84906 43.228129 109.82212 42.371977 99 43.848 C 106.12894 60.266884 114.12867 76.297934 121.739 92.5 C 143.82598 92.675148 165.91303 92.850815 188 93.027 L 188 19 L 155.025 19 L 154.762 55.478 z M 209.037 49.25 C 202.44227 63.766298 195.4758 78.113336 189 92.683 C 200.13157 93.137669 211.28435 92.58384 222.424 92.5 C 229.98623 76.43998 238.08577 60.611168 244.972 44.25 C 239.16774 42.091306 232.22266 43.362368 225.937 43 L 211.875 43 L 209.037 49.25 z M 79.065 114.25 C 74.206289 125.7384 68.095641 136.75163 64.215 148.62 C 98.696136 210.81071 133.919 272.59655 169.25297 334.30852 C 173.13098 345.21829 176.89572 327.74081 180.59187 324.26581 C 213.83237 265.89596 247.12626 207.55146 279.823 148.876 C 274.74348 135.81529 269.17345 122.80286 262.31918 110.56784 C 259.99022 109.23152 256.30154 110.38626 253.454 110 L 80.929 110 L 79.065 114.25 z M 152.254 164 C 158.87204 175.3993 165.50813 186.78816 172.163 198.166 L 201.175 148 L 240.198 148 C 217.60769 186.54926 195.56477 225.42412 172.576 263.737 C 166.23261 256.88685 162.2205 247.93518 157.12201 240.05502 C 139.28714 209.75658 121.65054 179.34013 104.16 148.842 C 117.10888 147.47497 130.22948 148.56559 143.253 148.5 L 152.254 164 z"/></g></g>
  <g transform="rotate(180,286.5,116)"><g transform="translate(283.8,114)"><path fill="#2E5930" fill-rule="nonzero" transform="matrix(0.025045487778022464,0.0,0.0,0.02508989650807833,-1.6084383395727815,-0.4769384260293279)" d="M 154.762 55.478 L 154.5 91.957 C 146.92164 75.637725 139.34262 59.318692 131.763 43 C 120.84906 43.228129 109.82212 42.371977 99 43.848 C 106.12894 60.266884 114.12867 76.297934 121.739 92.5 C 143.82598 92.675148 165.91303 92.850815 188 93.027 L 188 19 L 155.025 19 L 154.762 55.478 z M 209.037 49.25 C 202.44227 63.766298 195.4758 78.113336 189 92.683 C 200.13157 93.137669 211.28435 92.58384 222.424 92.5 C 229.98623 76.43998 238.08577 60.611168 244.972 44.25 C 239.16774 42.091306 232.22266 43.362368 225.937 43 L 211.875 43 L 209.037 49.25 z M 79.065 114.25 C 74.206289 125.7384 68.095641 136.75163 64.215 148.62 C 98.696136 210.81071 133.919 272.59655 169.25297 334.30852 C 173.13098 345.21829 176.89572 327.74081 180.59187 324.26581 C 213.83237 265.89596 247.12626 207.55146 279.823 148.876 C 274.74348 135.81529 269.17345 122.80286 262.31918 110.56784 C 259.99022 109.23152 256.30154 110.38626 253.454 110 L 80.929 110 L 79.065 114.25 z M 152.254 164 C 158.87204 175.3993 165.50813 186.78816 172.163 198.166 L 201.175 148 L 240.198 148 C 217.60769 186.54926 195.56477 225.42412 172.576 263.737 C 166.23261 256.88685 162.2205 247.93518 157.12201 240.05502 C 139.28714 209.75658 121.65054 179.34013 104.16 148.842 C 117.10888 147.47497 130.22948 148.56559 143.253 148.5 L 152.254 164 z"/></g></g>

  <!-- ==================== CAROTTES pics horizontaux GAUCHE (5 carrots) ==================== -->
  <!-- V tip at x=160, gap=12mm, carrot tip at x=148, center at x=144 -->
  <g transform="translate(144,228.5) rotate(-90) translate(-2.7,-4)"><g transform="translate(0,0)"><path fill="#2E5930" fill-rule="nonzero" transform="matrix(0.025045487778022464,0.0,0.0,0.02508989650807833,-1.6084383395727815,-0.4769384260293279)" d="M 154.762 55.478 L 154.5 91.957 C 146.92164 75.637725 139.34262 59.318692 131.763 43 C 120.84906 43.228129 109.82212 42.371977 99 43.848 C 106.12894 60.266884 114.12867 76.297934 121.739 92.5 C 143.82598 92.675148 165.91303 92.850815 188 93.027 L 188 19 L 155.025 19 L 154.762 55.478 z M 209.037 49.25 C 202.44227 63.766298 195.4758 78.113336 189 92.683 C 200.13157 93.137669 211.28435 92.58384 222.424 92.5 C 229.98623 76.43998 238.08577 60.611168 244.972 44.25 C 239.16774 42.091306 232.22266 43.362368 225.937 43 L 211.875 43 L 209.037 49.25 z M 79.065 114.25 C 74.206289 125.7384 68.095641 136.75163 64.215 148.62 C 98.696136 210.81071 133.919 272.59655 169.25297 334.30852 C 173.13098 345.21829 176.89572 327.74081 180.59187 324.26581 C 213.83237 265.89596 247.12626 207.55146 279.823 148.876 C 274.74348 135.81529 269.17345 122.80286 262.31918 110.56784 C 259.99022 109.23152 256.30154 110.38626 253.454 110 L 80.929 110 L 79.065 114.25 z M 152.254 164 C 158.87204 175.3993 165.50813 186.78816 172.163 198.166 L 201.175 148 L 240.198 148 C 217.60769 186.54926 195.56477 225.42412 172.576 263.737 C 166.23261 256.88685 162.2205 247.93518 157.12201 240.05502 C 139.28714 209.75658 121.65054 179.34013 104.16 148.842 C 117.10888 147.47497 130.22948 148.56559 143.253 148.5 L 152.254 164 z"/></g></g>
  <g transform="translate(144,241.5) rotate(-90) translate(-2.7,-4)"><g transform="translate(0,0)"><path fill="#2E5930" fill-rule="nonzero" transform="matrix(0.025045487778022464,0.0,0.0,0.02508989650807833,-1.6084383395727815,-0.4769384260293279)" d="M 154.762 55.478 L 154.5 91.957 C 146.92164 75.637725 139.34262 59.318692 131.763 43 C 120.84906 43.228129 109.82212 42.371977 99 43.848 C 106.12894 60.266884 114.12867 76.297934 121.739 92.5 C 143.82598 92.675148 165.91303 92.850815 188 93.027 L 188 19 L 155.025 19 L 154.762 55.478 z M 209.037 49.25 C 202.44227 63.766298 195.4758 78.113336 189 92.683 C 200.13157 93.137669 211.28435 92.58384 222.424 92.5 C 229.98623 76.43998 238.08577 60.611168 244.972 44.25 C 239.16774 42.091306 232.22266 43.362368 225.937 43 L 211.875 43 L 209.037 49.25 z M 79.065 114.25 C 74.206289 125.7384 68.095641 136.75163 64.215 148.62 C 98.696136 210.81071 133.919 272.59655 169.25297 334.30852 C 173.13098 345.21829 176.89572 327.74081 180.59187 324.26581 C 213.83237 265.89596 247.12626 207.55146 279.823 148.876 C 274.74348 135.81529 269.17345 122.80286 262.31918 110.56784 C 259.99022 109.23152 256.30154 110.38626 253.454 110 L 80.929 110 L 79.065 114.25 z M 152.254 164 C 158.87204 175.3993 165.50813 186.78816 172.163 198.166 L 201.175 148 L 240.198 148 C 217.60769 186.54926 195.56477 225.42412 172.576 263.737 C 166.23261 256.88685 162.2205 247.93518 157.12201 240.05502 C 139.28714 209.75658 121.65054 179.34013 104.16 148.842 C 117.10888 147.47497 130.22948 148.56559 143.253 148.5 L 152.254 164 z"/></g></g>
  <g transform="translate(144,254.5) rotate(-90) translate(-2.7,-4)"><g transform="translate(0,0)"><path fill="#2E5930" fill-rule="nonzero" transform="matrix(0.025045487778022464,0.0,0.0,0.02508989650807833,-1.6084383395727815,-0.4769384260293279)" d="M 154.762 55.478 L 154.5 91.957 C 146.92164 75.637725 139.34262 59.318692 131.763 43 C 120.84906 43.228129 109.82212 42.371977 99 43.848 C 106.12894 60.266884 114.12867 76.297934 121.739 92.5 C 143.82598 92.675148 165.91303 92.850815 188 93.027 L 188 19 L 155.025 19 L 154.762 55.478 z M 209.037 49.25 C 202.44227 63.766298 195.4758 78.113336 189 92.683 C 200.13157 93.137669 211.28435 92.58384 222.424 92.5 C 229.98623 76.43998 238.08577 60.611168 244.972 44.25 C 239.16774 42.091306 232.22266 43.362368 225.937 43 L 211.875 43 L 209.037 49.25 z M 79.065 114.25 C 74.206289 125.7384 68.095641 136.75163 64.215 148.62 C 98.696136 210.81071 133.919 272.59655 169.25297 334.30852 C 173.13098 345.21829 176.89572 327.74081 180.59187 324.26581 C 213.83237 265.89596 247.12626 207.55146 279.823 148.876 C 274.74348 135.81529 269.17345 122.80286 262.31918 110.56784 C 259.99022 109.23152 256.30154 110.38626 253.454 110 L 80.929 110 L 79.065 114.25 z M 152.254 164 C 158.87204 175.3993 165.50813 186.78816 172.163 198.166 L 201.175 148 L 240.198 148 C 217.60769 186.54926 195.56477 225.42412 172.576 263.737 C 166.23261 256.88685 162.2205 247.93518 157.12201 240.05502 C 139.28714 209.75658 121.65054 179.34013 104.16 148.842 C 117.10888 147.47497 130.22948 148.56559 143.253 148.5 L 152.254 164 z"/></g></g>
  <g transform="translate(144,267.5) rotate(-90) translate(-2.7,-4)"><g transform="translate(0,0)"><path fill="#2E5930" fill-rule="nonzero" transform="matrix(0.025045487778022464,0.0,0.0,0.02508989650807833,-1.6084383395727815,-0.4769384260293279)" d="M 154.762 55.478 L 154.5 91.957 C 146.92164 75.637725 139.34262 59.318692 131.763 43 C 120.84906 43.228129 109.82212 42.371977 99 43.848 C 106.12894 60.266884 114.12867 76.297934 121.739 92.5 C 143.82598 92.675148 165.91303 92.850815 188 93.027 L 188 19 L 155.025 19 L 154.762 55.478 z M 209.037 49.25 C 202.44227 63.766298 195.4758 78.113336 189 92.683 C 200.13157 93.137669 211.28435 92.58384 222.424 92.5 C 229.98623 76.43998 238.08577 60.611168 244.972 44.25 C 239.16774 42.091306 232.22266 43.362368 225.937 43 L 211.875 43 L 209.037 49.25 z M 79.065 114.25 C 74.206289 125.7384 68.095641 136.75163 64.215 148.62 C 98.696136 210.81071 133.919 272.59655 169.25297 334.30852 C 173.13098 345.21829 176.89572 327.74081 180.59187 324.26581 C 213.83237 265.89596 247.12626 207.55146 279.823 148.876 C 274.74348 135.81529 269.17345 122.80286 262.31918 110.56784 C 259.99022 109.23152 256.30154 110.38626 253.454 110 L 80.929 110 L 79.065 114.25 z M 152.254 164 C 158.87204 175.3993 165.50813 186.78816 172.163 198.166 L 201.175 148 L 240.198 148 C 217.60769 186.54926 195.56477 225.42412 172.576 263.737 C 166.23261 256.88685 162.2205 247.93518 157.12201 240.05502 C 139.28714 209.75658 121.65054 179.34013 104.16 148.842 C 117.10888 147.47497 130.22948 148.56559 143.253 148.5 L 152.254 164 z"/></g></g>
  <g transform="translate(144,280.5) rotate(-90) translate(-2.7,-4)"><g transform="translate(0,0)"><path fill="#2E5930" fill-rule="nonzero" transform="matrix(0.025045487778022464,0.0,0.0,0.02508989650807833,-1.6084383395727815,-0.4769384260293279)" d="M 154.762 55.478 L 154.5 91.957 C 146.92164 75.637725 139.34262 59.318692 131.763 43 C 120.84906 43.228129 109.82212 42.371977 99 43.848 C 106.12894 60.266884 114.12867 76.297934 121.739 92.5 C 143.82598 92.675148 165.91303 92.850815 188 93.027 L 188 19 L 155.025 19 L 154.762 55.478 z M 209.037 49.25 C 202.44227 63.766298 195.4758 78.113336 189 92.683 C 200.13157 93.137669 211.28435 92.58384 222.424 92.5 C 229.98623 76.43998 238.08577 60.611168 244.972 44.25 C 239.16774 42.091306 232.22266 43.362368 225.937 43 L 211.875 43 L 209.037 49.25 z M 79.065 114.25 C 74.206289 125.7384 68.095641 136.75163 64.215 148.62 C 98.696136 210.81071 133.919 272.59655 169.25297 334.30852 C 173.13098 345.21829 176.89572 327.74081 180.59187 324.26581 C 213.83237 265.89596 247.12626 207.55146 279.823 148.876 C 274.74348 135.81529 269.17345 122.80286 262.31918 110.56784 C 259.99022 109.23152 256.30154 110.38626 253.454 110 L 80.929 110 L 79.065 114.25 z M 152.254 164 C 158.87204 175.3993 165.50813 186.78816 172.163 198.166 L 201.175 148 L 240.198 148 C 217.60769 186.54926 195.56477 225.42412 172.576 263.737 C 166.23261 256.88685 162.2205 247.93518 157.12201 240.05502 C 139.28714 209.75658 121.65054 179.34013 104.16 148.842 C 117.10888 147.47497 130.22948 148.56559 143.253 148.5 L 152.254 164 z"/></g></g>

  <!-- ==================== CAROTTES pics horizontaux DROITE (4 carrots) ==================== -->
  <!-- V tip at x=160, gap=12mm, carrot tip at x=148, center at x=156 pointing left -->
  <g transform="translate(156,235) rotate(90) translate(-2.7,-4)"><g transform="translate(0,0)"><path fill="#2E5930" fill-rule="nonzero" transform="matrix(0.025045487778022464,0.0,0.0,0.02508989650807833,-1.6084383395727815,-0.4769384260293279)" d="M 154.762 55.478 L 154.5 91.957 C 146.92164 75.637725 139.34262 59.318692 131.763 43 C 120.84906 43.228129 109.82212 42.371977 99 43.848 C 106.12894 60.266884 114.12867 76.297934 121.739 92.5 C 143.82598 92.675148 165.91303 92.850815 188 93.027 L 188 19 L 155.025 19 L 154.762 55.478 z M 209.037 49.25 C 202.44227 63.766298 195.4758 78.113336 189 92.683 C 200.13157 93.137669 211.28435 92.58384 222.424 92.5 C 229.98623 76.43998 238.08577 60.611168 244.972 44.25 C 239.16774 42.091306 232.22266 43.362368 225.937 43 L 211.875 43 L 209.037 49.25 z M 79.065 114.25 C 74.206289 125.7384 68.095641 136.75163 64.215 148.62 C 98.696136 210.81071 133.919 272.59655 169.25297 334.30852 C 173.13098 345.21829 176.89572 327.74081 180.59187 324.26581 C 213.83237 265.89596 247.12626 207.55146 279.823 148.876 C 274.74348 135.81529 269.17345 122.80286 262.31918 110.56784 C 259.99022 109.23152 256.30154 110.38626 253.454 110 L 80.929 110 L 79.065 114.25 z M 152.254 164 C 158.87204 175.3993 165.50813 186.78816 172.163 198.166 L 201.175 148 L 240.198 148 C 217.60769 186.54926 195.56477 225.42412 172.576 263.737 C 166.23261 256.88685 162.2205 247.93518 157.12201 240.05502 C 139.28714 209.75658 121.65054 179.34013 104.16 148.842 C 117.10888 147.47497 130.22948 148.56559 143.253 148.5 L 152.254 164 z"/></g></g>
  <g transform="translate(156,248) rotate(90) translate(-2.7,-4)"><g transform="translate(0,0)"><path fill="#2E5930" fill-rule="nonzero" transform="matrix(0.025045487778022464,0.0,0.0,0.02508989650807833,-1.6084383395727815,-0.4769384260293279)" d="M 154.762 55.478 L 154.5 91.957 C 146.92164 75.637725 139.34262 59.318692 131.763 43 C 120.84906 43.228129 109.82212 42.371977 99 43.848 C 106.12894 60.266884 114.12867 76.297934 121.739 92.5 C 143.82598 92.675148 165.91303 92.850815 188 93.027 L 188 19 L 155.025 19 L 154.762 55.478 z M 209.037 49.25 C 202.44227 63.766298 195.4758 78.113336 189 92.683 C 200.13157 93.137669 211.28435 92.58384 222.424 92.5 C 229.98623 76.43998 238.08577 60.611168 244.972 44.25 C 239.16774 42.091306 232.22266 43.362368 225.937 43 L 211.875 43 L 209.037 49.25 z M 79.065 114.25 C 74.206289 125.7384 68.095641 136.75163 64.215 148.62 C 98.696136 210.81071 133.919 272.59655 169.25297 334.30852 C 173.13098 345.21829 176.89572 327.74081 180.59187 324.26581 C 213.83237 265.89596 247.12626 207.55146 279.823 148.876 C 274.74348 135.81529 269.17345 122.80286 262.31918 110.56784 C 259.99022 109.23152 256.30154 110.38626 253.454 110 L 80.929 110 L 79.065 114.25 z M 152.254 164 C 158.87204 175.3993 165.50813 186.78816 172.163 198.166 L 201.175 148 L 240.198 148 C 217.60769 186.54926 195.56477 225.42412 172.576 263.737 C 166.23261 256.88685 162.2205 247.93518 157.12201 240.05502 C 139.28714 209.75658 121.65054 179.34013 104.16 148.842 C 117.10888 147.47497 130.22948 148.56559 143.253 148.5 L 152.254 164 z"/></g></g>
  <g transform="translate(156,261) rotate(90) translate(-2.7,-4)"><g transform="translate(0,0)"><path fill="#2E5930" fill-rule="nonzero" transform="matrix(0.025045487778022464,0.0,0.0,0.02508989650807833,-1.6084383395727815,-0.4769384260293279)" d="M 154.762 55.478 L 154.5 91.957 C 146.92164 75.637725 139.34262 59.318692 131.763 43 C 120.84906 43.228129 109.82212 42.371977 99 43.848 C 106.12894 60.266884 114.12867 76.297934 121.739 92.5 C 143.82598 92.675148 165.91303 92.850815 188 93.027 L 188 19 L 155.025 19 L 154.762 55.478 z M 209.037 49.25 C 202.44227 63.766298 195.4758 78.113336 189 92.683 C 200.13157 93.137669 211.28435 92.58384 222.424 92.5 C 229.98623 76.43998 238.08577 60.611168 244.972 44.25 C 239.16774 42.091306 232.22266 43.362368 225.937 43 L 211.875 43 L 209.037 49.25 z M 79.065 114.25 C 74.206289 125.7384 68.095641 136.75163 64.215 148.62 C 98.696136 210.81071 133.919 272.59655 169.25297 334.30852 C 173.13098 345.21829 176.89572 327.74081 180.59187 324.26581 C 213.83237 265.89596 247.12626 207.55146 279.823 148.876 C 274.74348 135.81529 269.17345 122.80286 262.31918 110.56784 C 259.99022 109.23152 256.30154 110.38626 253.454 110 L 80.929 110 L 79.065 114.25 z M 152.254 164 C 158.87204 175.3993 165.50813 186.78816 172.163 198.166 L 201.175 148 L 240.198 148 C 217.60769 186.54926 195.56477 225.42412 172.576 263.737 C 166.23261 256.88685 162.2205 247.93518 157.12201 240.05502 C 139.28714 209.75658 121.65054 179.34013 104.16 148.842 C 117.10888 147.47497 130.22948 148.56559 143.253 148.5 L 152.254 164 z"/></g></g>
  <g transform="translate(156,274) rotate(90) translate(-2.7,-4)"><g transform="translate(0,0)"><path fill="#2E5930" fill-rule="nonzero" transform="matrix(0.025045487778022464,0.0,0.0,0.02508989650807833,-1.6084383395727815,-0.4769384260293279)" d="M 154.762 55.478 L 154.5 91.957 C 146.92164 75.637725 139.34262 59.318692 131.763 43 C 120.84906 43.228129 109.82212 42.371977 99 43.848 C 106.12894 60.266884 114.12867 76.297934 121.739 92.5 C 143.82598 92.675148 165.91303 92.850815 188 93.027 L 188 19 L 155.025 19 L 154.762 55.478 z M 209.037 49.25 C 202.44227 63.766298 195.4758 78.113336 189 92.683 C 200.13157 93.137669 211.28435 92.58384 222.424 92.5 C 229.98623 76.43998 238.08577 60.611168 244.972 44.25 C 239.16774 42.091306 232.22266 43.362368 225.937 43 L 211.875 43 L 209.037 49.25 z M 79.065 114.25 C 74.206289 125.7384 68.095641 136.75163 64.215 148.62 C 98.696136 210.81071 133.919 272.59655 169.25297 334.30852 C 173.13098 345.21829 176.89572 327.74081 180.59187 324.26581 C 213.83237 265.89596 247.12626 207.55146 279.823 148.876 C 274.74348 135.81529 269.17345 122.80286 262.31918 110.56784 C 259.99022 109.23152 256.30154 110.38626 253.454 110 L 80.929 110 L 79.065 114.25 z M 152.254 164 C 158.87204 175.3993 165.50813 186.78816 172.163 198.166 L 201.175 148 L 240.198 148 C 217.60769 186.54926 195.56477 225.42412 172.576 263.737 C 166.23261 256.88685 162.2205 247.93518 157.12201 240.05502 C 139.28714 209.75658 121.65054 179.34013 104.16 148.842 C 117.10888 147.47497 130.22948 148.56559 143.253 148.5 L 152.254 164 z"/></g></g>

  <!-- ============================================================ -->
  <!-- TEXTS -->
  <!-- ============================================================ -->



  <!-- === HORIZONTAL TEXTS (bottom section) === -->
  <!-- Left set: 5 texts between 6 lines, aligned right to x=140 (near the pics) -->
  <!-- Gap midpoints y: 228.5, 241.5, 254.5, 267.5, 280.5 → text y shifted +2 for baseline -->
  <!-- Left set: 5 texts between 6 lines, flipped vertically -->

  <!-- Right set: 4 texts between 5 lines, aligned right -->

</svg>
