<svg xmlns="http://www.w3.org/2000/svg" 
     xmlns:xlink="http://www.w3.org/1999/xlink"
     width="300mm" height="300mm" 
     viewBox="0 0 300 300">
  
  <defs>
    <style>
      @import url('https://fonts.googleapis.com/css2?family=Caveat:wght@400&amp;display=swap');
    </style>
    <symbol id="carrot" viewBox="2.527 91.736 9.082 13.431" width="5.4" height="8">
      <path fill="#2E5930" d="M 154.762 55.478 L 154.5 91.957 C 146.92164 75.637725 139.34262 59.318692 131.763 43 C 120.84906 43.228129 109.82212 42.371977 99 43.848 C 106.12894 60.266884 114.12867 76.297934 121.739 92.5 C 143.82598 92.675148 165.91303 92.850815 188 93.027 L 188 19 L 155.025 19 L 154.762 55.478 z M 209.037 49.25 C 202.44227 63.766298 195.4758 78.113336 189 92.683 C 200.13157 93.137669 211.28435 92.58384 222.424 92.5 C 229.98623 76.43998 238.08577 60.611168 244.972 44.25 C 239.16774 42.091306 232.22266 43.362368 225.937 43 L 211.875 43 L 209.037 49.25 z M 79.065 114.25 C 74.206289 125.7384 68.095641 136.75163 64.215 148.62 C 98.696136 210.81071 133.919 272.59655 169.25297 334.30852 C 173.13098 345.21829 176.89572 327.74081 180.59187 324.26581 C 213.83237 265.89596 247.12626 207.55146 279.823 148.876 C 274.74348 135.81529 269.17345 122.80286 262.31918 110.56784 C 259.99022 109.23152 256.30154 110.38626 253.454 110 L 80.929 110 L 79.065 114.25 z M 152.254 164 C 158.87204 175.3993 165.50813 186.78816 172.163 198.166 L 201.175 148 L 240.198 148 C 217.60769 186.54926 195.56477 225.42412 172.576 263.737 C 166.23261 256.88685 162.2205 247.93518 157.12201 240.05502 C 139.28714 209.75658 121.65054 179.34013 104.16 148.842 C 117.10888 147.47497 130.22948 148.56559 143.253 148.5 L 152.254 164 z" fill-rule="nonzero" transform="matrix(0.0421228,0,0,0.0421228,-0.178155,90.93528)"/>
    </symbol>
  </defs>

  <!-- Carré rouge 30x30cm -->
  <rect x="0" y="0" width="300" height="300" fill="none" stroke="red" stroke-width="0.5"/>

  <g fill="none" stroke="#222" stroke-width="0.5" stroke-linecap="round" stroke-linejoin="round">

    <!-- ==================== RANGÉE 1 (24 lines, y=7..93.5) ==================== -->
    <line x1="0.5" y1="7" x2="0.5" y2="93.5"/>
    <line x1="13.5" y1="7" x2="13.5" y2="93.5"/>
    <line x1="26.5" y1="7" x2="26.5" y2="93.5"/>
    <line x1="39.5" y1="7" x2="39.5" y2="93.5"/>
    <line x1="52.5" y1="7" x2="52.5" y2="93.5"/>
    <line x1="65.5" y1="7" x2="65.5" y2="93.5"/>
    <line x1="78.5" y1="7" x2="78.5" y2="93.5"/>
    <line x1="91.5" y1="7" x2="91.5" y2="93.5"/>
    <line x1="104.5" y1="7" x2="104.5" y2="93.5"/>
    <line x1="117.5" y1="7" x2="117.5" y2="93.5"/>
    <line x1="130.5" y1="7" x2="130.5" y2="93.5"/>
    <line x1="143.5" y1="7" x2="143.5" y2="93.5"/>
    <line x1="156.5" y1="7" x2="156.5" y2="93.5"/>
    <line x1="169.5" y1="7" x2="169.5" y2="93.5"/>
    <line x1="182.5" y1="7" x2="182.5" y2="93.5"/>
    <line x1="195.5" y1="7" x2="195.5" y2="93.5"/>
    <line x1="208.5" y1="7" x2="208.5" y2="93.5"/>
    <line x1="221.5" y1="7" x2="221.5" y2="93.5"/>
    <line x1="234.5" y1="7" x2="234.5" y2="93.5"/>
    <line x1="247.5" y1="7" x2="247.5" y2="93.5"/>
    <line x1="260.5" y1="7" x2="260.5" y2="93.5"/>
    <line x1="273.5" y1="7" x2="273.5" y2="93.5"/>
    <line x1="286.5" y1="7" x2="286.5" y2="93.5"/>
    <line x1="299.5" y1="7" x2="299.5" y2="93.5"/>

    <line x1="0.5" y1="7" x2="299.5" y2="7"/>

    <!-- ==================== PICS 1→2 (15mm) ==================== -->
    <path d="M0.5,93.5 L7,108.5 L13.5,93.5"/>
    <path d="M13.5,93.5 L20,108.5 L26.5,93.5"/>
    <path d="M26.5,93.5 L33,108.5 L39.5,93.5"/>
    <path d="M39.5,93.5 L46,108.5 L52.5,93.5"/>
    <path d="M52.5,93.5 L59,108.5 L65.5,93.5"/>
    <path d="M65.5,93.5 L72,108.5 L78.5,93.5"/>
    <path d="M78.5,93.5 L85,108.5 L91.5,93.5"/>
    <path d="M91.5,93.5 L98,108.5 L104.5,93.5"/>
    <path d="M104.5,93.5 L111,108.5 L117.5,93.5"/>
    <path d="M117.5,93.5 L124,108.5 L130.5,93.5"/>
    <path d="M130.5,93.5 L137,108.5 L143.5,93.5"/>
    <path d="M143.5,93.5 L150,108.5 L156.5,93.5"/>
    <path d="M156.5,93.5 L163,108.5 L169.5,93.5"/>
    <path d="M169.5,93.5 L176,108.5 L182.5,93.5"/>
    <path d="M182.5,93.5 L189,108.5 L195.5,93.5"/>
    <path d="M195.5,93.5 L202,108.5 L208.5,93.5"/>
    <path d="M208.5,93.5 L215,108.5 L221.5,93.5"/>
    <path d="M221.5,93.5 L228,108.5 L234.5,93.5"/>
    <path d="M234.5,93.5 L241,108.5 L247.5,93.5"/>
    <path d="M247.5,93.5 L254,108.5 L260.5,93.5"/>
    <path d="M260.5,93.5 L267,108.5 L273.5,93.5"/>
    <path d="M273.5,93.5 L280,108.5 L286.5,93.5"/>
    <path d="M286.5,93.5 L293,108.5 L299.5,93.5"/>

    <!-- ==================== RANGÉE 2 (23 lines, y=108.5..195) ==================== -->
    <line x1="7" y1="108.5" x2="7" y2="195"/>
    <line x1="20" y1="108.5" x2="20" y2="195"/>
    <line x1="33" y1="108.5" x2="33" y2="195"/>
    <line x1="46" y1="108.5" x2="46" y2="195"/>
    <line x1="59" y1="108.5" x2="59" y2="195"/>
    <line x1="72" y1="108.5" x2="72" y2="195"/>
    <line x1="85" y1="108.5" x2="85" y2="195"/>
    <line x1="98" y1="108.5" x2="98" y2="195"/>
    <line x1="111" y1="108.5" x2="111" y2="195"/>
    <line x1="124" y1="108.5" x2="124" y2="195"/>
    <line x1="137" y1="108.5" x2="137" y2="195"/>
    <line x1="150" y1="108.5" x2="150" y2="195"/>
    <line x1="163" y1="108.5" x2="163" y2="195"/>
    <line x1="176" y1="108.5" x2="176" y2="195"/>
    <line x1="189" y1="108.5" x2="189" y2="195"/>
    <line x1="202" y1="108.5" x2="202" y2="195"/>
    <line x1="215" y1="108.5" x2="215" y2="195"/>
    <line x1="228" y1="108.5" x2="228" y2="195"/>
    <line x1="241" y1="108.5" x2="241" y2="195"/>
    <line x1="254" y1="108.5" x2="254" y2="195"/>
    <line x1="267" y1="108.5" x2="267" y2="195"/>
    <line x1="280" y1="108.5" x2="280" y2="195"/>
    <line x1="293" y1="108.5" x2="293" y2="195"/>

    <line x1="7" y1="195" x2="293" y2="195"/>

    <!-- ==================== PICS ↑ inversés (15mm) ==================== -->
    <path d="M0.5,213 L7,198 L13.5,213"/>
    <path d="M13.5,213 L20,198 L26.5,213"/>
    <path d="M26.5,213 L33,198 L39.5,213"/>
    <path d="M39.5,213 L46,198 L52.5,213"/>
    <path d="M52.5,213 L59,198 L65.5,213"/>
    <path d="M65.5,213 L72,198 L78.5,213"/>
    <path d="M78.5,213 L85,198 L91.5,213"/>
    <path d="M91.5,213 L98,198 L104.5,213"/>
    <path d="M104.5,213 L111,198 L117.5,213"/>
    <path d="M117.5,213 L124,198 L130.5,213"/>
    <path d="M130.5,213 L137,198 L143.5,213"/>
    <path d="M143.5,213 L150,198 L156.5,213"/>
    <path d="M156.5,213 L163,198 L169.5,213"/>
    <path d="M169.5,213 L176,198 L182.5,213"/>
    <path d="M182.5,213 L189,198 L195.5,213"/>
    <path d="M195.5,213 L202,198 L208.5,213"/>
    <path d="M208.5,213 L215,198 L221.5,213"/>
    <path d="M221.5,213 L228,198 L234.5,213"/>
    <path d="M234.5,213 L241,198 L247.5,213"/>
    <path d="M247.5,213 L254,198 L260.5,213"/>
    <path d="M260.5,213 L267,198 L273.5,213"/>
    <path d="M273.5,213 L280,198 L286.5,213"/>
    <path d="M286.5,213 L293,198 L299.5,213"/>

    <!-- ==================== RANGÉE 3 (24 lines, y=213..299.5) ==================== -->
    <line x1="0.5" y1="213" x2="0.5" y2="299.5"/>
    <line x1="13.5" y1="213" x2="13.5" y2="299.5"/>
    <line x1="26.5" y1="213" x2="26.5" y2="299.5"/>
    <line x1="39.5" y1="213" x2="39.5" y2="299.5"/>
    <line x1="52.5" y1="213" x2="52.5" y2="299.5"/>
    <line x1="65.5" y1="213" x2="65.5" y2="299.5"/>
    <line x1="78.5" y1="213" x2="78.5" y2="299.5"/>
    <line x1="91.5" y1="213" x2="91.5" y2="299.5"/>
    <line x1="104.5" y1="213" x2="104.5" y2="299.5"/>
    <line x1="117.5" y1="213" x2="117.5" y2="299.5"/>
    <line x1="130.5" y1="213" x2="130.5" y2="299.5"/>
    <line x1="143.5" y1="213" x2="143.5" y2="299.5"/>
    <line x1="156.5" y1="213" x2="156.5" y2="299.5"/>
    <line x1="169.5" y1="213" x2="169.5" y2="299.5"/>
    <line x1="182.5" y1="213" x2="182.5" y2="299.5"/>
    <line x1="195.5" y1="213" x2="195.5" y2="299.5"/>
    <line x1="208.5" y1="213" x2="208.5" y2="299.5"/>
    <line x1="221.5" y1="213" x2="221.5" y2="299.5"/>
    <line x1="234.5" y1="213" x2="234.5" y2="299.5"/>
    <line x1="247.5" y1="213" x2="247.5" y2="299.5"/>
    <line x1="260.5" y1="213" x2="260.5" y2="299.5"/>
    <line x1="273.5" y1="213" x2="273.5" y2="299.5"/>
    <line x1="286.5" y1="213" x2="286.5" y2="299.5"/>
    <line x1="299.5" y1="213" x2="299.5" y2="299.5"/>

    <line x1="0.5" y1="299.5" x2="299.5" y2="299.5"/>

  </g>

  <!-- ==================== CAROTTES pics 1→2 (inside the V) ==================== -->
  <!-- Carrot top at y=93, bottom at y=101, centered in the V zone -->
  <use href="#carrot" x="4.3" y="93"/>
  <use href="#carrot" x="17.3" y="93"/>
  <use href="#carrot" x="30.3" y="93"/>
  <use href="#carrot" x="43.3" y="93"/>
  <use href="#carrot" x="56.3" y="93"/>
  <use href="#carrot" x="69.3" y="93"/>
  <use href="#carrot" x="82.3" y="93"/>
  <use href="#carrot" x="95.3" y="93"/>
  <use href="#carrot" x="108.3" y="93"/>
  <use href="#carrot" x="121.3" y="93"/>
  <use href="#carrot" x="134.3" y="93"/>
  <use href="#carrot" x="147.3" y="93"/>
  <use href="#carrot" x="160.3" y="93"/>
  <use href="#carrot" x="173.3" y="93"/>
  <use href="#carrot" x="186.3" y="93"/>
  <use href="#carrot" x="199.3" y="93"/>
  <use href="#carrot" x="212.3" y="93"/>
  <use href="#carrot" x="225.3" y="93"/>
  <use href="#carrot" x="238.3" y="93"/>
  <use href="#carrot" x="251.3" y="93"/>
  <use href="#carrot" x="264.3" y="93"/>
  <use href="#carrot" x="277.3" y="93"/>
  <use href="#carrot" x="290.3" y="93"/>

  <!-- ==================== CAROTTES rangée 2 (between sticks, 22 carrots, flipped) ==================== -->
  <!-- Centered between rangée 2 sticks: x=13.5, 26.5, 39.5... -->
  <use href="#carrot" x="10.8" y="101" transform="rotate(180,13.5,105)"/>
  <use href="#carrot" x="23.8" y="101" transform="rotate(180,26.5,105)"/>
  <use href="#carrot" x="36.8" y="101" transform="rotate(180,39.5,105)"/>
  <use href="#carrot" x="49.8" y="101" transform="rotate(180,52.5,105)"/>
  <use href="#carrot" x="62.8" y="101" transform="rotate(180,65.5,105)"/>
  <use href="#carrot" x="75.8" y="101" transform="rotate(180,78.5,105)"/>
  <use href="#carrot" x="88.8" y="101" transform="rotate(180,91.5,105)"/>
  <use href="#carrot" x="101.8" y="101" transform="rotate(180,104.5,105)"/>
  <use href="#carrot" x="114.8" y="101" transform="rotate(180,117.5,105)"/>
  <use href="#carrot" x="127.8" y="101" transform="rotate(180,130.5,105)"/>
  <use href="#carrot" x="140.8" y="101" transform="rotate(180,143.5,105)"/>
  <use href="#carrot" x="153.8" y="101" transform="rotate(180,156.5,105)"/>
  <use href="#carrot" x="166.8" y="101" transform="rotate(180,169.5,105)"/>
  <use href="#carrot" x="179.8" y="101" transform="rotate(180,182.5,105)"/>
  <use href="#carrot" x="192.8" y="101" transform="rotate(180,195.5,105)"/>
  <use href="#carrot" x="205.8" y="101" transform="rotate(180,208.5,105)"/>
  <use href="#carrot" x="218.8" y="101" transform="rotate(180,221.5,105)"/>
  <use href="#carrot" x="231.8" y="101" transform="rotate(180,234.5,105)"/>
  <use href="#carrot" x="244.8" y="101" transform="rotate(180,247.5,105)"/>
  <use href="#carrot" x="257.8" y="101" transform="rotate(180,260.5,105)"/>
  <use href="#carrot" x="270.8" y="101" transform="rotate(180,273.5,105)"/>
  <use href="#carrot" x="283.8" y="101" transform="rotate(180,286.5,105)"/>

  <!-- ==================== CAROTTES pics 2→3 (inside the inverted V, flipped) ==================== -->
  <!-- V bases at y=213, tip at y=198. Carrot top at y=205, bottom at y=213 -->
  <!-- Place carrot at y=205, rotate 180° around center (cx, 209) -->
  <use href="#carrot" x="4.3" y="205" transform="rotate(180,7,209)"/>
  <use href="#carrot" x="17.3" y="205" transform="rotate(180,20,209)"/>
  <use href="#carrot" x="30.3" y="205" transform="rotate(180,33,209)"/>
  <use href="#carrot" x="43.3" y="205" transform="rotate(180,46,209)"/>
  <use href="#carrot" x="56.3" y="205" transform="rotate(180,59,209)"/>
  <use href="#carrot" x="69.3" y="205" transform="rotate(180,72,209)"/>
  <use href="#carrot" x="82.3" y="205" transform="rotate(180,85,209)"/>
  <use href="#carrot" x="95.3" y="205" transform="rotate(180,98,209)"/>
  <use href="#carrot" x="108.3" y="205" transform="rotate(180,111,209)"/>
  <use href="#carrot" x="121.3" y="205" transform="rotate(180,124,209)"/>
  <use href="#carrot" x="134.3" y="205" transform="rotate(180,137,209)"/>
  <use href="#carrot" x="147.3" y="205" transform="rotate(180,150,209)"/>
  <use href="#carrot" x="160.3" y="205" transform="rotate(180,163,209)"/>
  <use href="#carrot" x="173.3" y="205" transform="rotate(180,176,209)"/>
  <use href="#carrot" x="186.3" y="205" transform="rotate(180,189,209)"/>
  <use href="#carrot" x="199.3" y="205" transform="rotate(180,202,209)"/>
  <use href="#carrot" x="212.3" y="205" transform="rotate(180,215,209)"/>
  <use href="#carrot" x="225.3" y="205" transform="rotate(180,228,209)"/>
  <use href="#carrot" x="238.3" y="205" transform="rotate(180,241,209)"/>
  <use href="#carrot" x="251.3" y="205" transform="rotate(180,254,209)"/>
  <use href="#carrot" x="264.3" y="205" transform="rotate(180,267,209)"/>
  <use href="#carrot" x="277.3" y="205" transform="rotate(180,280,209)"/>
  <use href="#carrot" x="290.3" y="205" transform="rotate(180,293,209)"/>

  <!-- ============================================================ -->
  <!--                          TEXTS                               -->
  <!-- ============================================================ -->




</svg>
